<?xml version="1.0" standalone="no"?>
<!DOCTYPE svg PUBLIC "-//W3C//DTD SVG 1.1//EN" "http://www.w3.org/Graphics/SVG/1.1/DTD/svg11.dtd" >
<svg>
<metadata>
Created by FontForge 20090914 at Fri Feb 24 15:49:36 2012
 By root
Copyright (c) 2011, Huerta Tipografica (www.huertatipografica.com.ar), with Reserved Font Names "Petrona", "Petrona Pro" and "Petrona HT". All rights reserved.
</metadata>
<defs>
<font id="Petrona-Regular" horiz-adv-x="739" >
  <font-face 
    font-family="Petrona"
    font-weight="400"
    font-stretch="normal"
    units-per-em="1000"
    panose-1="2 0 5 3 2 0 0 2 0 3"
    ascent="800"
    descent="-200"
    x-height="443"
    cap-height="641"
    bbox="-100 -270 1015 858"
    underline-thickness="50"
    underline-position="-25"
    unicode-range="U+000D-U+FB02"
  />
<missing-glyph horiz-adv-x="250" 
 />
    <glyph glyph-name=".notdef" horiz-adv-x="250" 
 />
    <glyph glyph-name="uni0000" horiz-adv-x="0" 
 />
    <glyph glyph-name="uni0000" horiz-adv-x="0" 
 />
    <glyph glyph-name="nonmarkingreturn" unicode="&#xd;" horiz-adv-x="287" 
 />
    <glyph glyph-name="space" unicode=" " horiz-adv-x="221" 
 />
    <glyph glyph-name="exclam" unicode="!" horiz-adv-x="247" 
d="M85.5 1.5q-13.5 13.5 -13.5 36t15.5 37.5t35.5 15q52 0 52 -51q0 -21 -15.5 -36t-38 -15t-36 13.5zM73 587q0 68 50 68t50 -68q0 -27 -26 -402q-10 -7 -24 -7t-24 7q-26 375 -26 402z" />
    <glyph glyph-name="quotedbl" unicode="&#x22;" horiz-adv-x="291" 
d="M38 675q0 50 41.5 50t41.5 -50q0 -11 -24 -200q-7 -5 -18 -5t-16 5q-25 196 -25 200zM169 675q0 50 41.5 50t41.5 -50q0 -11 -24 -200q-7 -5 -18 -5t-16 5q-25 196 -25 200z" />
    <glyph glyph-name="numbersign" unicode="#" horiz-adv-x="548" 
d="M53 185q-13 8 -13 26.5t3 24.5h120l17 107h-98q-13 8 -13 26.5t3 24.5h117l19 120q37 0 51 -21l-16 -99h96l19 120q37 0 51 -21l-16 -99h101q14 -9 14 -27t-3 -24h-120l-17 -107h97q14 -9 14 -27t-3 -24h-117l-19 -120q-37 0 -51 21l16 99h-96l-19 -120q-37 0 -51 21
l16 99h-102zM218 236h95l17 107h-95z" />
    <glyph glyph-name="dollar" unicode="$" horiz-adv-x="502" 
d="M49 45l15 119q16 14 29.5 14t21.5 -2l11 -107q52 -31 104 -35v227q-39 15 -59 24.5t-47 28.5q-51 37 -51 104t42 112t115 51v74q29 0 39 -10v-64q61 -6 107 -27l49 -23l-18 -120q-36 0 -42 17l-14 75q-34 28 -82 33v-204q90 -34 120 -54q62 -44 62 -116t-48.5 -121
t-133.5 -53v-76q-25 0 -39 10v67q-84 6 -181 56zM145 443q0 -35 21.5 -56.5t63.5 -39.5v189q-85 -12 -85 -93zM269 36q46 5 73.5 31.5t27.5 69t-26 66.5t-75 43v-210z" />
    <glyph glyph-name="percent" unicode="%" horiz-adv-x="693" 
d="M77 386q-33 40 -33 99.5t38 111t101 51.5t95 -39t32 -100.5t-37.5 -112t-100 -50.5t-95.5 40zM49 15l548 640q39 0 50 -27l-548 -640q-39 0 -50 27zM128.5 588q-17.5 -33 -17.5 -86.5t18 -91t49 -37.5t48.5 33.5t17.5 86t-18 90.5t-49 38t-48.5 -33zM414 45
q-33 40 -33 99.5t38 111t101 51.5t95 -39t32 -100.5t-37.5 -112t-100 -50.5t-95.5 40zM465.5 247q-17.5 -33 -17.5 -86.5t18 -91t49 -37.5t48.5 33.5t17.5 86t-18 90.5t-49 38t-48.5 -33z" />
    <glyph glyph-name="ampersand" unicode="&#x26;" horiz-adv-x="701" 
d="M49 166q0 104 155 192q-32 32 -54 67.5t-28 57t-6 43.5q0 57 40.5 93t105 36t107.5 -33t43 -96q0 -94 -121 -164l169 -189q26 85 27 225l-59 5q0 34 19 43l207 16q9 -10 9 -25.5t-17.5 -31.5t-47.5 -16l-40 3q0 -153 -57 -261q49 -49 79.5 -65.5t82.5 -30.5
q0 -47 -69 -47q-39 0 -71.5 18t-69.5 57q-72 -75 -189 -75q-121 0 -182 76q-33 41 -33 102zM164.5 271q-22.5 -31 -22.5 -85.5t46 -101.5t106 -47q85 0 129 59q-27 30 -90 108l-103 125q-43 -27 -65.5 -58zM194 486l6 -14q3 -5 10 -14l8 -14q13 -13 19 -20q14 -18 29 -33
q76 52 76 131q0 39 -24.5 62.5t-58.5 23.5t-54.5 -21.5t-20.5 -51t10 -49.5z" />
    <glyph glyph-name="quotesingle" unicode="'" horiz-adv-x="160" 
d="M38 675q0 50 41.5 50t41.5 -50q0 -11 -24 -200q-7 -5 -18 -5t-16 5q-25 196 -25 200z" />
    <glyph glyph-name="parenleft" unicode="(" horiz-adv-x="266" 
d="M73 -29q-35 125 -35 285.5t35 294t103 209.5q22 25 46.5 25t27.5 -25q-63 -76 -95 -209.5t-32 -293t32 -292t95 -208.5q-3 -25 -29 -25q-42 0 -83 74t-65 165z" />
    <glyph glyph-name="parenright" unicode=")" horiz-adv-x="265" 
d="M16 -243q63 76 95 209t32 292t-32 292.5t-95 209.5q2 25 29 25q39 0 82 -75.5t72 -182.5t29 -267t-35.5 -291.5t-102.5 -211.5q-21 -25 -46.5 -25t-27.5 25z" />
    <glyph glyph-name="asterisk" unicode="*" horiz-adv-x="451" 
d="M48 555q-5 13 -5 28.5t9 32t22 24.5l137 -74l-30 152q22 16 44 16t44 -16l-28 -152l135 76q32 -24 32 -58q0 -17 -4 -26l-154 -20l114 -105q-9 -24 -28.5 -38.5t-43.5 -14.5l-66 140l-65 -140h-6q-24 0 -42 15.5t-24 35.5l113 107z" />
    <glyph glyph-name="plus" unicode="+" horiz-adv-x="469" 
d="M45 236q-14 11 -14 32.5t3 29.5h167v169q7 3 30.5 3t34.5 -14v-158h157q14 -11 14 -32.5t-3 -30.5h-169v-169q-7 -3 -30 -3t-34 14v159h-156z" />
    <glyph glyph-name="comma" unicode="," horiz-adv-x="214" 
d="M42 -150l-4 1q-11 1 -11 22q40 13 59.5 36.5t19.5 44.5t-9 33.5t-19 18.5q-29 18 -29 42t12.5 37.5t33.5 13.5q38 0 58 -29.5t20 -68.5t-16 -70t-39 -47q-47 -34 -76 -34z" />
    <glyph glyph-name="hyphen" unicode="-" horiz-adv-x="360" 
d="M249 220l-111 2q-43 0 -76 -4q-3 5 -3 19v11q0 54 53 54l111 -2q43 0 76 4q3 -15 3 -19v-11q0 -54 -53 -54z" />
    <glyph glyph-name="period" unicode="." horiz-adv-x="206" 
d="M62 2.5q-14 14.5 -14 38.5t16 39.5t40 15.5t38.5 -14.5t14.5 -38.5t-16.5 -39.5t-40.5 -15.5t-38 14.5z" />
    <glyph glyph-name="slash" unicode="/" horiz-adv-x="408" 
d="M28 -178l293 912q36 0 49 -11q3 -3 10 -11l-293 -912q-43 0 -59 22z" />
    <glyph glyph-name="zero" unicode="0" horiz-adv-x="640" 
d="M76 140.5q-27 66.5 -27 152t32 168t98.5 138.5t153.5 56q64 0 115 -25t82 -68q61 -85 61 -207q0 -92 -32.5 -174.5t-99 -137.5t-151.5 -55t-145 43t-87 109.5zM151 332q0 -125 43.5 -210t126 -85t124.5 76t44 198q0 127 -43.5 211t-126 84t-124.5 -76t-44 -198z" />
    <glyph glyph-name="one" unicode="1" horiz-adv-x="372" 
d="M33 542q-8 21 -8 29.5t9 21.5l182 62h28v-588l102 -21q0 -20 -4 -29t-15 -17h-277q0 34 17 39l91 23v503z" />
    <glyph glyph-name="two" unicode="2" horiz-adv-x="536" 
d="M37 62q15 14 57 48l71 59q30 25 70 66.5t65.5 78.5t43.5 85.5t18 98t-30.5 80t-88.5 30.5t-110 -38l-14 -86q-3 -18 -47 -21l-19 136q109 56 203 56t152 -43t58 -120q0 -50 -23 -102t-53.5 -91.5t-80.5 -85.5t-83 -72l-83 -63q-10 -7 -15 -11l275 -21l32 122q33 0 47 -19
v-149h-419q-15 11 -20.5 23.5t-5.5 38.5z" />
    <glyph glyph-name="three" unicode="3" horiz-adv-x="537" 
d="M39 127q0 23 12.5 36.5t29.5 13.5t30.5 -6.5t17.5 -15.5q0 -64 31 -91t95.5 -27t99 33.5t34.5 90.5t-37 88.5t-111 59.5q-11 4 -14 12.5t-3 27.5q152 44 152 146q0 51 -31 81t-89.5 30t-110.5 -38l-14 -86q-3 -18 -47 -21l-19 136q3 0 16 7.5t24.5 13l17.5 8.5l40 14
l22 6q39 9 76 9q97 0 151.5 -43t54.5 -120q0 -105 -145 -152q163 -45 163 -176q0 -83 -59 -129.5t-162.5 -46.5t-164 43.5t-60.5 95.5z" />
    <glyph glyph-name="four" unicode="4" horiz-adv-x="518" 
d="M10 222l326 433q59 0 59 -53v-385h64v-57h-64v-93l90 -21q0 -20 -4 -29t-15 -17h-249q0 32 16 39l76 23v98h-273q-15 11 -20.5 23.5t-5.5 38.5zM78 217h231v316z" />
    <glyph glyph-name="five" unicode="5" horiz-adv-x="527" 
d="M39 127q0 23 12.5 36.5t29.5 13.5t30.5 -6.5t17.5 -15.5q0 -64 31 -91t94 -27t95.5 40.5t34.5 101.5q0 66 -34.5 113t-100.5 47q-93 0 -158 -50q-11 5 -14 13t-3 27l30 312h345l-23 -162q-44 3 -47 21l-15 95l-214 -16v-220q64 31 128 31q96 0 150.5 -52.5t54.5 -136
t-63.5 -148.5t-164 -65t-158.5 43.5t-58 95.5z" />
    <glyph glyph-name="six" unicode="6" horiz-adv-x="563" 
d="M73 132.5q-24 60.5 -24 146.5t35.5 172.5t109.5 145t172 58.5q47 0 78.5 -17t31.5 -38.5t-15.5 -34t-31 -12.5t-23.5 5q-27 48 -70 48q-75 0 -129 -89.5t-56 -200.5q29 29 78.5 54t106.5 25q92 0 141 -57.5t49 -141t-63.5 -146t-155.5 -62.5t-151 42t-83 102.5zM152 268
q11 -231 142 -231q61 0 95 46.5t34 110t-26.5 102.5t-79.5 39t-96.5 -21t-68.5 -46z" />
    <glyph glyph-name="seven" unicode="7" horiz-adv-x="441" 
d="M15 641h421q8 -10 8 -19q0 -21 -34 -74l-73 -112q-40 -58 -73.5 -143t-33.5 -154t25 -110q-7 -15 -23.5 -28t-42 -13t-43.5 25.5t-18 76.5q0 215 250 489l-277 15l-15 -94q-3 -18 -47 -21z" />
    <glyph glyph-name="eight" unicode="8" horiz-adv-x="551" 
d="M51 157q0 50 37.5 95.5t87.5 75.5q-88 50 -92 149q0 73 51 125.5t143 52.5t143 -45t51 -119.5t-91 -147.5q59 -27 90.5 -64t31.5 -108t-61.5 -127t-166 -56t-164.5 47t-60 122zM164.5 262q-18.5 -36 -18.5 -95t35.5 -94.5t96 -35.5t96 32t35.5 89q0 60 -48 90
q-38 24 -88 41t-68 25q-22 -16 -40.5 -52zM160 498q0 -32 11 -47t18 -23.5t21 -16.5l24 -13q8 -5 27 -12l28 -10q18 -8 60 -20q46 55 46 133q0 56 -31.5 86.5t-86 30.5t-86 -28.5t-31.5 -79.5z" />
    <glyph glyph-name="nine" unicode="9" horiz-adv-x="565" 
d="M89 314.5q-48 51.5 -48 134t63 144.5t160 62q67 0 117 -24t79 -65q56 -81 56 -190q0 -149 -84 -266q-40 -55 -102.5 -88.5t-125.5 -33.5t-96.5 17t-33.5 38.5t15.5 34t31 12.5t23.5 -5q28 -48 75 -48q81 0 138 93t57 207v7q-29 -29 -79.5 -55t-104.5 -26q-93 0 -141 51.5
zM177.5 562q-33.5 -44 -33.5 -103.5t25.5 -96.5t78.5 -37t96 20.5t68 45.5q-14 215 -140 215q-61 0 -94.5 -44z" />
    <glyph glyph-name="colon" unicode=":" horiz-adv-x="239" 
d="M74 20.5q-16 16.5 -16 43.5t18.5 44.5t45.5 17.5t43 -16.5t16 -43.5t-18.5 -44.5t-45.5 -17.5t-43 16.5zM74 337.5q-16 16.5 -16 43.5t18.5 44.5t45.5 17.5t43 -16.5t16 -43.5t-18.5 -44.5t-45.5 -17.5t-43 16.5z" />
    <glyph glyph-name="semicolon" unicode=";" horiz-adv-x="252" 
d="M61 -151l-4 1q-11 3 -11 22q40 13 59.5 36.5t19.5 48.5t-28.5 49t-28.5 44.5t13 34.5t34 14q38 0 57.5 -30.5t19.5 -69.5t-16.5 -69.5t-39.5 -47.5q-47 -33 -75 -33zM80.5 337.5q-16.5 16.5 -16 43.5t19 44.5t45.5 17.5t43 -16.5t16 -43.5t-18.5 -44.5t-45.5 -17.5
t-43.5 16.5z" />
    <glyph glyph-name="less" unicode="&#x3c;" horiz-adv-x="527" 
d="M30 267q0 19 15 34l423 171q3 -8 3 -31t-14 -34l-331 -140l331 -140q14 -11 14 -34t-3 -31l-423 171q-15 15 -15 34z" />
    <glyph glyph-name="equal" unicode="=" horiz-adv-x="532" 
d="M82 165q-14 11 -14 34t3 30h379q14 -11 14 -34t-3 -30h-379zM82 305q-14 11 -14 34t3 30h379q14 -11 14 -34t-3 -30h-379z" />
    <glyph glyph-name="greater" unicode="&#x3e;" horiz-adv-x="527" 
d="M59 62q-3 8 -3 31t14 34l331 140l-331 140q-14 11 -14 34t3 31l423 -171q15 -15 15 -34t-15 -34z" />
    <glyph glyph-name="question" unicode="?" horiz-adv-x="427" 
d="M33 537q0 50 46.5 84t128.5 34t134 -42t52 -113q0 -57 -35 -102q-33 -44 -74 -72q-10 -7 -27 -18l-25 -14q-7 -4 -22 -11.5t-16 -8.5l-7 -89q-10 -7 -26.5 -7t-26.5 7l-10 111l45 19q16 7 46 25t46.5 37t30 49.5t13.5 75.5t-25 75.5t-70 30.5q-89 0 -89 -99
q-20 -20 -42 -20t-34.5 12.5t-12.5 35.5zM123.5 1.5q-13.5 13.5 -13.5 36t15.5 37.5t35.5 15q52 0 52 -51q0 -21 -15.5 -36t-38 -15t-36 13.5z" />
    <glyph glyph-name="at" unicode="@" horiz-adv-x="826" 
d="M66.5 58q-22.5 63 -22.5 136.5t26 146.5t72.5 133t120.5 96.5t163 36.5t160.5 -30.5t114.5 -81.5q88 -104 88 -246q0 -117 -74.5 -187.5t-188.5 -70.5q-55 0 -55 61q0 14 12 88q-15 -49 -60.5 -99t-98.5 -50q-68 0 -102 46.5t-34 125.5q0 101 61 193q30 46 80 75t107 29
t104.5 -20.5t69.5 -38.5l-51 -306q-2 -14 -2 -22q0 -22 20 -22q57 0 102 47.5t45 144.5q0 122 -82.5 214.5t-231 92.5t-225.5 -89.5t-77 -232.5t82 -240t218 -97t211 61l16 -23q-73 -66 -146 -85q-38 -10 -81 -10q-91 0 -162 30t-114 80.5t-65.5 113.5zM292 296
q-18 -50 -18 -103t23.5 -96t57.5 -43t67.5 38t51 73t22.5 53l28 164q-45 39 -90 39t-84.5 -37.5t-57.5 -87.5z" />
    <glyph glyph-name="A" unicode="A" horiz-adv-x="653" 
d="M-5 0q0 32 16 39l62 23l208 556q14 37 40 37q16 0 32 -7l229 -581l86 -21q0 -20 -4 -29t-15 -17h-237q0 34 16 39l61 27l-58 149h-240l-56 -148l89 -21q0 -20 -4 -29t-15 -17h-210zM210 267h200l-102 262z" />
    <glyph glyph-name="B" unicode="B" horiz-adv-x="584" 
d="M45 0q0 34 16 39l63 23v512l-79 21q0 33 19 46h249q194 0 194 -148q0 -46 -32.5 -81.5t-73.5 -51.5q64 -19 98.5 -63.5t34.5 -113t-65 -126t-163 -57.5h-261zM210 67q54 -21 106 -21t87 28t35 103.5t-41 111.5t-144 36h-43v-258zM210 371q2 -1 47 -1t60.5 1.5t36 8.5
t32.5 19t21 35t9 55t-11 54t-30 33q-35 20 -73.5 20t-91.5 -17v-208z" />
    <glyph glyph-name="C" unicode="C" horiz-adv-x="636" 
d="M48 289q0 90 39.5 172.5t119 138t191 55.5t191.5 -50l-18 -152q-44 3 -47 21l-13 83v1q-55 48 -131 48q-116 0 -172 -76t-58 -198q0 -124 59.5 -209.5t161.5 -85.5q86 0 138 59l13 113q43 0 56 -13l11 -123q-94 -85 -218 -85q-83 0 -146.5 25t-100.5 69q-76 87 -76 207z
" />
    <glyph glyph-name="D" unicode="D" horiz-adv-x="710" 
d="M45 0q0 34 16 39l63 23v512l-79 21q0 33 19 46h284q152 0 232.5 -85.5t80.5 -210.5q0 -87 -38 -164.5t-115 -129t-177 -51.5h-286zM210 67q61 -21 129 -21q110 0 164 73.5t56 191.5q0 121 -57.5 202.5t-161.5 81.5q-50 0 -130 -16v-512z" />
    <glyph glyph-name="E" unicode="E" horiz-adv-x="576" 
d="M45 0q0 34 16 39l63 23v512l-79 21q0 33 19 46h441v-153q-34 0 -39 16l-33 91l-223 -16v-228h190l20 60q17 0 23.5 -3t15.5 -13v-140q-9 -10 -15.5 -13t-23.5 -3l-20 60h-190v-232l249 -21l31 122q20 0 29 -4t17 -15v-149h-491z" />
    <glyph glyph-name="F" unicode="F" horiz-adv-x="540" 
d="M45 0q0 34 16 39l63 23v512l-79 21q0 33 19 46h441v-153q-34 0 -39 16l-33 91l-223 -16v-238h190l20 60q17 0 23.5 -3t15.5 -13v-145q-9 -10 -15.5 -13t-23.5 -3l-20 65h-190v-222l100 -21q0 -20 -4 -29t-15 -17h-246z" />
    <glyph glyph-name="G" unicode="G" horiz-adv-x="664" 
d="M48 296q0 90 37.5 170.5t113 134.5t183 54t188.5 -50l-16 -152q-44 3 -47 21l-15 84q-53 48 -122 48q-112 0 -165.5 -76t-55.5 -198q0 -124 57 -209.5t155 -85.5q82 0 128 48v145l-99 21q0 20 4 29t15 17h228q0 -31 -16 -39l-42 -22v-189q-86 -59 -213 -59
q-81 0 -143.5 26t-100.5 70q-74 87 -74 212z" />
    <glyph glyph-name="H" unicode="H" horiz-adv-x="749" 
d="M45 0q0 34 16 39l63 23v512l-79 21q0 20 4 29t15 17h236q0 -34 -16 -39l-74 -23v-218h326v213l-79 21q0 20 4 29t15 17h236q0 -34 -16 -39l-74 -23v-512l90 -21q0 -20 -4 -29t-15 -17h-236q0 34 16 39l63 23v247h-326v-242l90 -21q0 -20 -4 -29t-15 -17h-236z" />
    <glyph glyph-name="I" unicode="I" horiz-adv-x="337" 
d="M45 0q0 34 16 39l63 23v512l-79 21q0 20 4 29t15 17h236q0 -34 -16 -39l-74 -23v-512l90 -21q0 -20 -4 -29t-15 -17h-236z" />
    <glyph glyph-name="J" unicode="J" horiz-adv-x="316" 
d="M-35.5 -170.5q-16.5 12.5 -16.5 26.5q0 39 16 39q99 0 118 22q25 30 29 68.5t4 81.5v507l-79 21q0 20 4 29t15 17h236q0 -34 -16 -39l-74 -28v-405q0 -88 -30.5 -171t-76.5 -132t-91 -49q-22 0 -38.5 12.5z" />
    <glyph glyph-name="K" unicode="K" horiz-adv-x="640" 
d="M45 0q0 34 16 39l63 23v512l-79 21q0 20 4 29t15 17h236q0 -34 -16 -39l-74 -23v-512l90 -21q0 -20 -4 -29t-15 -17h-236zM223 357l229 217l-78 21q0 20 4 29t15 17h227q0 -34 -16 -39l-71 -23l-225 -211q69 -104 159.5 -201.5t173.5 -142.5q0 -15 -15.5 -25.5
t-50.5 -10.5t-81.5 31t-94.5 89q-88 105 -176 249z" />
    <glyph glyph-name="L" unicode="L" horiz-adv-x="545" 
d="M45 0q0 34 16 39l63 23v512l-79 21q0 20 4 29t15 17h236q0 -34 -16 -39l-74 -23v-512l249 -21l21 122q20 0 29 -4t17 -15v-149h-481z" />
    <glyph glyph-name="M" unicode="M" horiz-adv-x="887" 
d="M27 0q0 34 16 40l62 23l47 511l-79 21q0 20 4 29t15 17h168l188 -490l175 490h201q0 -34 -16 -39l-74 -23l41 -512l91 -21q0 -19 -4 -27.5t-16 -18.5h-235q0 33 16 40l63 23l-39 481l-191 -521q-9 -26 -25 -26q-11 0 -20 7l-208 540l-43 -477l90 -21q0 -20 -4 -28.5
t-16 -17.5h-207z" />
    <glyph glyph-name="N" unicode="N" horiz-adv-x="748" 
d="M45 0q0 34 16 39l63 23v512l-79 21q0 20 4 29t15 17h151l358 -484v417l-79 21q0 20 4 29t15 17h205q0 -34 -16 -39l-69 -23v-552q0 -15 -9 -22.5t-21.5 -7.5t-22.5 6l-396 532v-468l90 -21q0 -20 -4 -29t-15 -17h-210z" />
    <glyph glyph-name="O" unicode="O" 
d="M67 181q-19 54 -19 118t22.5 127.5t63.5 115t104.5 82.5t139.5 31q152 0 232.5 -89.5t80.5 -218.5q0 -137 -86 -245q-41 -52 -104.5 -83t-140.5 -31t-138.5 26t-98.5 69.5t-56 97.5zM203 528q-54 -78 -54 -201t58.5 -206.5t165 -83.5t161.5 77.5t55 201t-58.5 207
t-166 83.5t-161.5 -78z" />
    <glyph glyph-name="P" unicode="P" horiz-adv-x="553" 
d="M45 0q0 34 16 39l63 23v512l-79 21q0 33 19 46h248q106 0 162 -49.5t56 -125.5t-67 -139.5t-174 -63.5q-43 0 -79 9v-205l100 -21q0 -20 -4 -29t-15 -17h-246zM210 316q29 -8 76 -8q66 0 106 46t40 103.5t-34.5 95.5t-98.5 38q-31 0 -89 -12v-263z" />
    <glyph glyph-name="Q" unicode="Q" 
d="M67 181q-19 54 -19 118t22.5 127.5t63.5 115t104.5 82.5t139.5 31q152 0 232.5 -89.5t80.5 -218.5q0 -104 -52.5 -196.5t-144.5 -134.5q100 -41 245 -81t266 -40q10 -10 10 -27.5t-21 -34t-62 -16.5q-84 0 -236 53.5t-296 120.5q-20 -3 -39 -3q-78 0 -139.5 26
t-98.5 69.5t-56 97.5zM203 528q-54 -78 -54 -201t58.5 -206.5t165 -83.5t161.5 77.5t55 201t-58.5 207t-166 83.5t-161.5 -78z" />
    <glyph glyph-name="R" unicode="R" horiz-adv-x="631" 
d="M45 0q0 34 16 39l63 23v512l-79 21q0 33 19 46h248q103 0 159 -46t56 -107.5t-35 -110.5t-98 -74q118 -192 233 -279q0 -14 -13.5 -25t-35.5 -11q-60 0 -122 80t-132 218q-15 -3 -44 -3t-70 12v-228l90 -21q0 -20 -4 -29t-15 -17h-236zM210 340q28 -8 64 -8
q66 0 111.5 34.5t45.5 101.5q0 50 -34.5 86.5t-97.5 36.5q-31 0 -89 -12v-239z" />
    <glyph glyph-name="S" unicode="S" horiz-adv-x="523" 
d="M43 50l16 135q16 16 43 16q8 0 14 -3l11 -122q16 -14 50 -27.5t85 -13.5t87 32.5t36 83.5t-32.5 80.5t-78.5 47t-92 37.5t-78.5 60t-32.5 108.5t49.5 119.5t137.5 51q40 0 83.5 -12.5t58.5 -19.5t48 -24l-19 -136q-44 3 -47 21l-14 86q-52 38 -106 38t-83 -28.5
t-29 -79.5q0 -59 65 -92q29 -14 64 -27.5t69.5 -29.5t63.5 -36.5t47 -55.5t18 -81q0 -80 -57.5 -135t-160.5 -55t-216 62z" />
    <glyph glyph-name="T" unicode="T" horiz-adv-x="601" 
d="M23 478v163h554v-163q-35 0 -39 16l-33 101l-162 -16v-512l90 -21q0 -20 -4 -29t-15 -17h-236q0 34 16 39l63 23v517l-162 16l-33 -101q-4 -16 -39 -16z" />
    <glyph glyph-name="U" unicode="U" horiz-adv-x="721" 
d="M28 595q0 20 4 29t15 17h240q0 -34 -16 -39l-74 -23v-375q0 -163 169 -163q89 0 134 37.5t45 127.5v368l-79 21q0 20 4 29t15 17h211q0 -34 -16 -39l-69 -23v-365q0 -102 -62 -164t-188 -62t-190 59t-64 164v363z" />
    <glyph glyph-name="V" unicode="V" horiz-adv-x="646" 
d="M-14 595q0 20 4 29t15 17h236q0 -34 -16 -39l-63 -23l179 -467l170 462l-89 21q0 20 4 29t15 17h210q0 -34 -16 -39l-62 -23l-205 -554q-14 -37 -40 -37q-16 0 -32 7l-224 579z" />
    <glyph glyph-name="W" unicode="W" horiz-adv-x="942" 
d="M-7 595q0 20 4 29t15 17h235q0 -34 -16 -39l-73 -23l155 -459l141 459h65l151 -459l132 454l-79 21q0 20 4 29t15 17h210q0 -34 -16 -39l-73 -23l-164 -554q-4 -15 -18.5 -26t-29 -11t-30.5 7l-148 454l-131 -424q-5 -16 -18.5 -26.5t-28.5 -10.5t-31 7l-193 579z" />
    <glyph glyph-name="X" unicode="X" horiz-adv-x="634" 
d="M7 0q0 32 16 39l62 23l176 264l-166 248l-78 21q0 20 4 29t15 17h249q0 -34 -16 -39l-74 -23l134 -200l128 195l-79 21q0 20 4 29t15 17h220q0 -34 -16 -39l-74 -23l-164 -250l175 -262l90 -21q0 -20 -4 -29t-15 -17h-249q0 32 16 39l62 23l-143 213l-139 -208l90 -21
q0 -20 -4 -29t-15 -17h-220z" />
    <glyph glyph-name="Y" unicode="Y" horiz-adv-x="612" 
d="M-14 595q0 20 4 29t15 17h248q0 -34 -16 -39l-74 -23l162 -257l135 252l-79 21q0 20 4 29t15 17h217q0 -34 -16 -39l-74 -23l-175 -319v-193l90 -21q0 -20 -4 -29t-15 -17h-236q0 34 16 39l63 23v198l-201 314z" />
    <glyph glyph-name="Z" unicode="Z" horiz-adv-x="576" 
d="M38 25q0 11 7 21l350 533l-266 16l-33 -101q-5 -16 -39 -16v163h433q25 0 25 -24q0 -12 -7 -22l-347 -528l295 -21l31 132q20 0 29 -4t17 -15v-159h-469q-26 0 -26 25z" />
    <glyph glyph-name="bracketleft" unicode="[" horiz-adv-x="283" 
d="M77 -258v1036h190q2 -14 2 -20q0 -32 -13 -43h-99v-910h99q13 -11 13 -43q0 -6 -2 -20h-190z" />
    <glyph glyph-name="backslash" unicode="\" horiz-adv-x="408" 
d="M28 712q18 22 59 22l293 -912q-6 -8 -10 -12q-12 -10 -49 -10z" />
    <glyph glyph-name="bracketright" unicode="]" horiz-adv-x="283" 
d="M14 -238q0 32 13 43h99v910h-99q-13 11 -13 43q0 6 2 20h190v-1036h-190q-2 14 -2 20z" />
    <glyph glyph-name="asciicircum" unicode="^" horiz-adv-x="600" 
d="M107 316l161 377q15 15 34 15t34 -15l161 -377q-12 -18 -21 -22t-28 -4l-146 322l-146 -322q-19 0 -28 4t-21 22z" />
    <glyph glyph-name="underscore" unicode="_" horiz-adv-x="691" 
d="M139 -179q-14 11 -14 34t3 30h419q14 -11 14 -34t-3 -30h-419z" />
    <glyph glyph-name="grave" unicode="`" horiz-adv-x="435" 
d="M100 658q-3 7 -3 18t14 25t26.5 14t21.5 -5q17 -8 54 -50l110 -120q0 -17 -21 -22l-56 36l-84 52q-51 33 -62 52z" />
    <glyph glyph-name="a" unicode="a" horiz-adv-x="467" 
d="M34 89q0 116 144 149l118 27v51q0 103 -72 103q-44 0 -63 -22t-19 -70q-17 -12 -37 -12t-33 13.5t-13 32.5q0 38 53 69.5t125 31.5t106.5 -35t34.5 -118v-219q0 -39 27 -39q22 0 45 17l17 -24q-49 -56 -100 -56q-71 0 -71 99q-18 -26 -63.5 -62.5t-94 -36.5t-76.5 29
t-28 72zM128.5 168q-18.5 -23 -18.5 -49.5t16.5 -45t46 -18.5t65 21.5t58.5 46.5v104l-113 -27q-36 -9 -54.5 -32z" />
    <glyph glyph-name="b" unicode="b" horiz-adv-x="525" 
d="M-5 726q68 8 101 8q53 0 53 -54v-317q91 99 164 99q90 0 131 -63t41 -163.5t-64 -174t-170.5 -73.5t-183.5 47v629l-56 23q-16 6 -16 39zM149 71q39 -37 98 -37q75 0 110 52t35 142q0 163 -115 163q-59 0 -128 -69v-251z" />
    <glyph glyph-name="c" unicode="c" horiz-adv-x="460" 
d="M93 54.5q-54 66.5 -54 168t62 170.5t158 69q63 0 114 -32.5t51 -87.5q0 -22 -12 -34t-34 -12t-42 20q-4 103 -83 103q-121 0 -121 -181q0 -85 38 -134t106 -49q33 0 67 15q46 19 69 42l17 -24l-12 -13q-80 -87 -164 -87q-106 0 -160 66.5z" />
    <glyph glyph-name="d" unicode="d" horiz-adv-x="554" 
d="M89.5 56.5q-49.5 68.5 -49.5 166t60 168.5t166 71q55 0 110 -16v218l-56 23q-16 6 -16 39q68 8 90.5 8t31.5 -1.5t20.5 -16t11.5 -40.5v-586q0 -39 27 -39q22 0 45 17l17 -24q-49 -56 -100 -56q-71 0 -71 98q-28 -44 -71.5 -71t-77.5 -27q-88 0 -137.5 68.5zM133 238
q0 -83 32 -133t98 -50q51 0 113 69v255q-49 37 -102 37q-141 0 -141 -178z" />
    <glyph glyph-name="e" unicode="e" horiz-adv-x="472" 
d="M101.5 394q61.5 68 154.5 68q67 0 116 -42q57 -48 61 -174h-301q0 -95 40.5 -143t107 -48t133.5 57l17 -24q-89 -100 -175 -100q-60 0 -103.5 20.5t-67.5 55.5q-44 68 -44 165t61.5 165zM133 288l205 3q-1 66 -26.5 97t-63.5 31q-102 0 -115 -131z" />
    <glyph glyph-name="f" unicode="f" horiz-adv-x="332" 
d="M26 0q0 33 16 39l56 23v335l-63 4q0 35 19 44l44 4q0 63 33 129t88 111t112 45q29 0 44.5 -16t15.5 -38t-12 -38h-56q-74 0 -92 -7q-40 -15 -48 -87q-3 -25 -3 -60v-35l131 9q9 -10 9 -26t-19 -31t-58 -15l-63 3v-326l92 -21q0 -20 -4 -29t-15 -17h-227z" />
    <glyph glyph-name="g" unicode="g" horiz-adv-x="499" 
d="M25 -135q0 25 15 40.5t41 15.5t43 -15q0 -74 29.5 -105t95 -31t107 34t41.5 71t-11.5 53.5t-35 21.5t-48.5 6q-198 8 -198 81q0 28 16.5 53.5t37.5 41.5q-119 29 -119 154q0 73 57 124.5t144 51.5q67 0 111 -23l128 12q9 -11 9 -22q0 -47 -76 -47q21 -36 21 -89
q0 -69 -60 -118.5t-142 -49.5h-25q-19 -26 -19 -52q0 -14 11.5 -19.5t19.5 -7.5t19.5 -4t19.5 -2.5t20 -1.5t34.5 -2.5t43.5 -4.5t50.5 -11t43.5 -21q36 -33 36 -93q0 -80 -67.5 -128t-169.5 -48t-162.5 42t-60.5 93zM125 293q0 -56 28.5 -90t83 -34t82 33t27.5 91t-30 92.5
t-83 34.5q-108 0 -108 -127z" />
    <glyph glyph-name="h" unicode="h" horiz-adv-x="573" 
d="M20 0q0 33 16 39l56 23v602l-56 23q-16 6 -16 39q68 8 101 8q53 0 53 -54v-317q99 99 178 99q129 0 129 -148v-247l82 -21q0 -20 -4 -29t-15 -17h-217q0 33 16 39l56 23v237q0 92 -87 92q-60 0 -138 -69v-255l82 -21q0 -20 -4 -29t-15 -17h-217z" />
    <glyph glyph-name="i" unicode="i" horiz-adv-x="279" 
d="M29 0q0 33 16 39l56 23v319l-56 23q-16 6 -16 39q68 8 101 8q53 0 53 -54v-330l82 -21q0 -20 -4 -29t-15 -17h-217zM93 561.5q-14 14.5 -14 38.5t16 39.5t40 15.5t38.5 -14.5t14.5 -38.5t-16.5 -39.5t-40.5 -15.5t-38 14.5z" />
    <glyph glyph-name="j" unicode="j" horiz-adv-x="242" 
d="M-48.5 -257.5q-16.5 12.5 -16.5 31t12 34.5q70 0 101 16q18 9 26 30q17 41 17 133v394l-56 23q-16 6 -16 39q68 8 101 8q53 0 53 -54v-315q0 -70 -27 -152.5t-70.5 -141t-85.5 -58.5q-22 0 -38.5 12.5zM84 561.5q-14 14.5 -14 38.5t16 39.5t40 15.5t38 -14.5t14 -38.5
t-16 -39.5t-40 -15.5t-38 14.5z" />
    <glyph glyph-name="k" unicode="k" horiz-adv-x="501" 
d="M20 0q0 33 16 39l56 23v602l-56 23q-16 6 -16 39q68 8 101 8q53 0 53 -54v-613l61 -21q0 -20 -4 -29t-15 -17h-196zM184 254l149 128l-54 15q0 20 4 29t15 17h169q0 -32 -16 -39l-40 -19l-154 -127q40 -64 109 -132.5t133 -100.5q0 -12 -13 -24.5t-41 -12.5t-64.5 22.5
t-72.5 67.5q-61 73 -124 176z" />
    <glyph glyph-name="l" unicode="l" horiz-adv-x="271" 
d="M20 0q0 33 16 39l56 23v602l-56 23q-16 6 -16 39q68 8 101 8q53 0 53 -54v-613l82 -21q0 -20 -4 -29t-15 -17h-217z" />
    <glyph glyph-name="m" unicode="m" horiz-adv-x="852" 
d="M29 0q0 33 16 39l56 23v319l-56 23q-16 6 -16 39q68 8 101 8q53 0 53 -54v-34q91 99 159 99q52 0 83 -23.5t42 -79.5q94 103 161 103t100 -37t33 -126v-232l82 -21q0 -20 -4 -29t-15 -17h-217q0 33 16 39l56 23v237q0 92 -88 92q-45 0 -95 -44l-20 -20l-4 -5v-255l82 -21
q0 -20 -4 -29t-15 -17h-217q0 33 16 39l56 23v237q0 92 -88 92q-50 0 -119 -69v-255l82 -21q0 -20 -4 -29t-15 -17h-217z" />
    <glyph glyph-name="n" unicode="n" horiz-adv-x="574" 
d="M29 0q0 33 16 39l56 23v319l-56 23q-16 6 -16 39q68 8 101 8q53 0 53 -54v-34q92 99 170 99q65 0 97.5 -36.5t32.5 -126.5v-232l82 -21q0 -20 -4 -29t-15 -17h-217q0 33 16 39l56 23v237q0 92 -87 92q-62 0 -131 -69v-255l82 -21q0 -20 -4 -29t-15 -17h-217z" />
    <glyph glyph-name="o" unicode="o" horiz-adv-x="535" 
d="M92.5 53q-52.5 65 -52.5 167t68.5 172t170.5 70t159.5 -63.5t57.5 -159.5t-64.5 -173.5t-175.5 -77.5t-163.5 65zM161 362.5q-31 -56.5 -31 -140t38 -137.5t103.5 -54t99 51.5t33.5 136t-37.5 142.5t-106 58t-99.5 -56.5z" />
    <glyph glyph-name="p" unicode="p" horiz-adv-x="549" 
d="M19 -258q0 33 16 39l56 23v577l-56 23q-16 6 -16 39q68 8 101 8q53 0 53 -54v-34q91 99 164 99q90 0 131 -63t41 -163.5t-64 -174t-171 -73.5q-52 0 -101 14v-193l82 -21q0 -20 -4 -29t-15 -17h-217zM173 71q39 -37 98 -37q75 0 110 52t35 142q0 163 -115 163
q-59 0 -128 -69v-251z" />
    <glyph glyph-name="q" unicode="q" horiz-adv-x="529" 
d="M89.5 56.5q-49.5 68.5 -49.5 166t60 168.5t166 71q71 0 137 -26l55 26v-653l82 -21q0 -20 -4 -29t-15 -17h-217q0 33 16 39l56 23v282q-28 -44 -71.5 -71t-77.5 -27q-88 0 -137.5 68.5zM133 238q0 -81 32 -130t98 -49q48 0 113 65v255q-49 37 -102 37q-141 0 -141 -178z
" />
    <glyph glyph-name="r" unicode="r" horiz-adv-x="403" 
d="M184 393l-1 -12v-24q26 51 61.5 78t68 27t57 -19t24.5 -42.5t-18.5 -36t-38.5 -12.5q-34 35 -67 35q-49 0 -87 -74v-246l92 -21q0 -20 -4 -29t-15 -17h-227q0 33 16 39l56 23v319l-56 23q-16 6 -16 39q68 8 101 8q54 0 54 -58z" />
    <glyph glyph-name="s" unicode="s" horiz-adv-x="414" 
d="M35 102q0 20 12.5 31t34 11t41.5 -20q0 -56 22 -75.5t60 -19.5t61 23t23 57t-24 53.5t-58.5 31.5t-69 26.5t-58.5 45t-24 79t40.5 83t109 34.5t112.5 -24t44 -61q0 -16 -12 -28.5t-31.5 -12.5t-36.5 12q0 73 -72 73q-35 0 -56.5 -19.5t-21.5 -48.5t25 -47t61.5 -30.5
t72.5 -28.5t61 -47t25 -81.5t-46.5 -90.5t-119.5 -40t-124 31t-51 83z" />
    <glyph glyph-name="t" unicode="t" horiz-adv-x="340" 
d="M23 402q0 35 19 44l42 2v82q29 34 82 39v-116l133 9q9 -10 9 -26t-19 -31t-58 -15l-65 3v-241q0 -61 13.5 -79.5t41.5 -18.5q47 0 99 37l14 -27q-20 -29 -59 -52.5t-71 -23.5t-50.5 5t-35.5 20q-34 30 -34 128v256z" />
    <glyph glyph-name="u" unicode="u" horiz-adv-x="563" 
d="M15 443q68 8 101 8q53 0 53 -54v-241q0 -49 20 -72.5t67 -23.5q59 0 127 68v253l-56 23q-16 6 -16 39q68 8 101 8q53 0 53 -54v-307q0 -39 27 -39q22 0 45 17l17 -24q-49 -56 -100 -56q-71 0 -71 99q-26 -33 -73 -66t-92 -33q-65 0 -98 37t-33 127v229l-56 23
q-16 6 -16 39z" />
    <glyph glyph-name="v" unicode="v" horiz-adv-x="493" 
d="M0 397q0 20 4 29t15 17h199q0 -33 -16 -39l-54 -23l120 -299l113 294l-74 21q0 20 4 29t15 17h171q0 -32 -16 -39l-49 -23l-137 -356q-15 -37 -41 -37q-16 0 -32 7l-153 381z" />
    <glyph glyph-name="w" unicode="w" horiz-adv-x="692" 
d="M1 397q0 20 4 29t15 17h201q0 -33 -16 -39l-57 -23l97 -293l97 293h47l96 -293l96 288l-72 21q0 20 4 29t15 17h168q0 -32 -16 -39l-49 -23l-120 -357q-13 -36 -36.5 -36t-35.5 7l-88 268l-80 -239q-13 -36 -41 -36q-16 0 -32 7l-128 381z" />
    <glyph glyph-name="x" unicode="x" horiz-adv-x="500" 
d="M15 0q0 33 16 39l56 23l121 161l-112 153l-71 21q0 20 4 29t15 17h190q0 -29 -16 -39l-36 -23l82 -112l78 107l-43 21q0 20 4 29t15 17h151q0 -32 -16 -39l-49 -23l-113 -149l120 -165l78 -21q0 -20 -4 -29t-15 -17h-199q0 29 16 39l38 22l-90 125l-89 -119l54 -21
q0 -20 -4 -29t-15 -17h-166z" />
    <glyph glyph-name="y" unicode="y" horiz-adv-x="494" 
d="M11.5 -257q-16.5 13 -16.5 31.5t12 33.5h62q62 0 83.5 26.5t75.5 161.5l-158 380l-69 21q0 20 4 29t15 17h200q0 -33 -16 -39l-54 -23l118 -290l112 285l-73 21q0 20 4 29t15 17h172q0 -32 -16 -39l-49 -23l-152 -381q-42 -105 -104 -187.5t-121 -82.5q-28 0 -44.5 13z
" />
    <glyph glyph-name="z" unicode="z" horiz-adv-x="438" 
d="M28 25q0 11 7 21l251 339l-170 12l-15 -71q-3 -16 -38 -16l-13 133h316q12 0 18.5 -7t6.5 -18t-7 -21l-250 -339l198 -12l11 97q32 0 48 -19l13 -124h-350q-26 0 -26 25z" />
    <glyph glyph-name="braceleft" unicode="{" horiz-adv-x="341" 
d="M217 63l-6 -149q0 -51 21.5 -77.5t89.5 -48.5q13 -11 13 -29.5t-2 -28.5q-52 0 -91 18.5t-61 40.5t-37.5 61t-15.5 89q4 52 4 124t-25 116.5t-98 44.5q-13 11 -13 40q0 6 2 20q78 0 106 45t28 137l-4 117q0 57 23 98.5t58 60.5q64 36 124 36q2 -10 2 -28.5t-13 -29.5
q-68 -22 -89.5 -48.5t-21.5 -77.5l6 -149q0 -80 -35.5 -122t-103.5 -64q0 -5 3 -7q67 -22 101.5 -65.5t34.5 -123.5z" />
    <glyph glyph-name="bar" unicode="|" horiz-adv-x="225" 
d="M78 -182v916q49 0 69 -18v-916q-49 0 -69 18z" />
    <glyph glyph-name="braceright" unicode="}" horiz-adv-x="341" 
d="M209 45l4 -120q0 -48 -16.5 -84.5t-40.5 -57t-54 -33.5q-49 -20 -94 -20q-2 10 -2 28.5t13 29.5q68 22 89.5 48.5t21.5 77.5l-6 149q0 81 34.5 124t101.5 65q3 2 3 7q-67 21 -103 64t-36 122l6 149q0 51 -21.5 77.5t-89.5 48.5q-13 11 -13 29.5t2 28.5q45 0 84.5 -16.5
t63.5 -36.5t40.5 -57t16.5 -85l-4 -117q0 -92 28 -137t106 -45q2 -14 2 -20q0 -29 -13 -40q-72 0 -97.5 -45t-25.5 -134z" />
    <glyph glyph-name="asciitilde" unicode="~" horiz-adv-x="504" 
d="M51 254q0 33 41 68.5t96 35.5q30 0 90 -24.5t86 -24.5q49 0 84 60q12 -13 12 -30q0 -32 -44.5 -67.5t-99.5 -35.5q-29 0 -87 24t-85 24q-47 0 -81 -58q-12 15 -12 28z" />
    <glyph glyph-name="uni00A0" unicode="&#xa0;" horiz-adv-x="221" 
 />
    <glyph glyph-name="exclamdown" unicode="&#xa1;" horiz-adv-x="224" 
d="M60 433q0 21 15.5 36t38 15t36 -13.5t13.5 -36t-15.5 -37.5t-35.5 -15q-52 0 -52 51zM62 -115q0 27 26 402q10 7 24 7t24 -7q26 -375 26 -402q0 -68 -50 -68t-50 68z" />
    <glyph glyph-name="cent" unicode="&#xa2;" horiz-adv-x="563" 
d="M113.5 73.5q-61.5 77.5 -61.5 186.5t67 205t170 113v77q29 0 39 -10v-64q105 0 177 -45l-18 -132q-39 3 -43 17l-11 72q-45 40 -105 44v-503q64 5 105 52l11 98q38 0 51 -15l10 -104q-81 -71 -177 -77v-76q-25 0 -39 10v67q-114 7 -175.5 84.5zM144 293q0 -98 40 -172
t105 -86v499q-69 -12 -106 -77.5t-39 -163.5z" />
    <glyph glyph-name="sterling" unicode="&#xa3;" horiz-adv-x="482" 
d="M47 274q0 25 10 39h44q-24 54 -24 114.5t46.5 107t124.5 46.5t126.5 -27t48.5 -66q0 -19 -13 -32.5t-35 -13.5t-40 13q0 40 -22 60.5t-64.5 20.5t-69.5 -24.5t-27 -71.5t43 -127h139q0 -29 -10 -39h-111q13 -30 13 -60q0 -70 -88 -147l214 -21l26 113q33 0 47 -19v-140
h-332q-15 11 -20.5 23.5t-5.5 38.5q87 80 87 132q0 27 -32 80h-75z" />
    <glyph glyph-name="currency" unicode="&#xa4;" horiz-adv-x="670" 
d="M46 26l116 121q-36 54 -36 128t44 139l-124 129q6 28 47 38l117 -121q58 48 135 48t126 -36l105 109q41 -10 47 -38l-110 -114q36 -50 36 -128.5t-48 -146.5l122 -128q-6 -28 -47 -38l-117 123q-53 -43 -129 -43t-126 36l-111 -116q-41 10 -47 38zM191 295
q0 -69 38.5 -116t110.5 -47t108 42.5t36 111.5t-39 115t-109.5 46t-106.5 -42.5t-38 -109.5z" />
    <glyph glyph-name="yen" unicode="&#xa5;" horiz-adv-x="632" 
d="M29 538q0 29 17 43h226q0 -32 -15 -37l-67 -21l148 -230l122 225l-71 20q0 31 17 43h197q0 -32 -14 -37l-68 -21l-137 -247h111q0 -29 -10 -39h-123v-55h133q0 -29 -10 -39h-123v-80l82 -19q0 -30 -17 -44h-215q0 32 15 37l57 21v85h-136q0 25 10 39h126v55h-136
q0 25 10 39h101l-158 242z" />
    <glyph glyph-name="brokenbar" unicode="&#xa6;" horiz-adv-x="230" 
d="M81 -152l3 295h64l-1 -313q-46 0 -66 18zM83 391v313q46 0 64 -18v-295h-64z" />
    <glyph glyph-name="section" unicode="&#xa7;" horiz-adv-x="419" 
d="M49 100q0 41 39 41q21 0 40 -19q0 -54 19 -74t53 -20t55 23t21 57t-21.5 53.5t-52 31.5t-61.5 26.5t-52.5 44.5t-21.5 67t12 59.5t37 52.5q-39 36 -39 89.5t36.5 88t97.5 34.5t100 -24t39 -59q0 -16 -10.5 -28.5t-29.5 -12.5t-31 12q0 36 -17.5 54t-48 18t-49.5 -19.5
t-19 -48t22.5 -46t54.5 -30t64 -28t54.5 -46t22.5 -68.5t-12 -60t-37 -51q39 -39 39 -95t-41.5 -95.5t-107 -39.5t-110.5 30t-45 82zM149 421q-19 -26 -19 -59.5t20.5 -52t67 -38t59.5 -26.5q13 24 13 56t-15 51.5t-33 28t-48.5 20.5t-44.5 20z" />
    <glyph glyph-name="dieresis" unicode="&#xa8;" horiz-adv-x="340" 
d="M20 604q0 18 14 32t34.5 14t32.5 -12.5t12 -32t-14.5 -33.5t-32.5 -14q-46 0 -46 46zM227 604q0 18 14 32t34.5 14t32.5 -12.5t12 -32t-14.5 -33.5t-32.5 -14q-46 0 -46 46z" />
    <glyph glyph-name="copyright" unicode="&#xa9;" 
d="M67 181q-19 54 -19 118t22.5 127.5t63.5 115t104.5 82.5t139.5 31q152 0 232.5 -89.5t80.5 -218.5q0 -137 -86 -245q-41 -52 -104.5 -83t-140.5 -31t-138.5 26t-98.5 69.5t-56 97.5zM168.5 528.5q-65.5 -77.5 -65.5 -200.5t70.5 -207t200 -84t195.5 77.5t66 201.5
t-70.5 207t-200.5 83t-195.5 -77.5zM231 169q-50 54 -50 137t58 152.5t152 69.5q75 0 125 -30l-11 -95q-2 1 -7 2t-8 2l-6 2q-8 2 -8 8l-8 51q-33 31 -82 31q-72 0 -107.5 -48t-35.5 -124.5t37 -129t95.5 -52.5t91.5 37l7 70q28 0 36 -8l6 -76q-59 -53 -135 -53
q-100 0 -150 54z" />
    <glyph glyph-name="ordfeminine" unicode="&#xaa;" horiz-adv-x="383" 
d="M56 424q0 70 96 93l67 16v32q0 64 -36 64q-23 0 -33.5 -13t-12.5 -43l-1 -1q-14 -7 -29.5 -7t-25.5 8.5t-10 20.5q0 23 36 42t87 19q91 0 91 -94v-137q0 -23 9 -23q12 0 32 18l13 -23q-33 -33 -68 -33q-45 0 -51 44q-44 -44 -84.5 -44t-60 18t-19.5 43zM75 265
q-10 10 -10 22t2 22h244q10 -10 10 -22t-2 -22h-244zM131 475q-10 -15 -10 -32t7.5 -28t22.5 -11t35.5 13t32.5 28v64l-60 -15q-18 -4 -28 -19z" />
    <glyph glyph-name="guillemotleft" unicode="&#xab;" horiz-adv-x="455" 
d="M40 267q0 19 15 34l144 148q24 -17 24 -45l-102 -137l102 -137q0 -28 -24 -45l-144 148q-15 15 -15 34zM223 267q0 19 15 34l144 148q24 -17 24 -45l-102 -137l102 -137q0 -28 -24 -45l-144 148q-15 15 -15 34z" />
    <glyph glyph-name="logicalnot" unicode="&#xac;" horiz-adv-x="570" 
d="M82 235q-14 11 -14 34t3 30h430v-154q-7 -3 -30 -3t-34 14v79h-355z" />
    <glyph glyph-name="uni00AD" unicode="&#xad;" horiz-adv-x="361" 
d="M247 254l-111 2q-43 0 -76 -4q-3 5 -3 19v11q0 54 53 54l127 -2q40 0 60 7q3 -15 3 -19v-14q0 -54 -53 -54z" />
    <glyph glyph-name="registered" unicode="&#xae;" horiz-adv-x="480" 
d="M97.5 313q-48.5 54 -48.5 133t54 144t143.5 65t137.5 -53t48 -134t-54.5 -145t-143 -64t-137 54zM129.5 572q-37.5 -43 -37.5 -110t39 -114t111 -47t109.5 41.5t37.5 109.5t-39.5 115.5t-111 47.5t-109 -43zM232 450l-14 1v-66l28 -9q0 -12 -9 -15h-86q0 13 11 16l15 5
v162l-26 8q0 10 8 16h85q74 0 74 -52q0 -42 -42 -60q41 -60 65 -79l12 -8q0 -12 -22 -12q-39 0 -87 94zM218 470q8 -2 14 -2q45 0 45 46q0 33 -49 33q-3 -1 -6 -1h-4v-76z" />
    <glyph glyph-name="macron" unicode="&#xaf;" horiz-adv-x="546" 
d="M120 577q-14 11 -14 34t3 30h328q14 -11 14 -34t-3 -30h-328z" />
    <glyph glyph-name="degree" unicode="&#xb0;" horiz-adv-x="300" 
d="M65 472.5q-26 29.5 -26 74.5t33 76.5t84 31.5t79 -29t28 -71t-31.5 -77t-86 -35t-80.5 29.5zM99 600q-16 -21 -16 -53t17.5 -51t51.5 -19q66 0 66 68q0 34 -17 55t-51.5 21t-50.5 -21z" />
    <glyph glyph-name="plusminus" unicode="&#xb1;" horiz-adv-x="532" 
d="M77 67q-14 11 -14 33t3 29h389q14 -11 14 -33t-3 -29h-389zM77 291q-14 11 -14 33t3 29h167v114q7 3 30.5 3t34.5 -14v-103h157q14 -11 14 -32.5t-3 -30.5h-169v-116q-7 -3 -30 -3t-34 14v106h-156z" />
    <glyph glyph-name="uni00B2" unicode="&#xb2;" horiz-adv-x="375" 
d="M46 305l32 27q157 122 157 225q0 26 -16 42.5t-43.5 16.5t-60.5 -21l-7 -48q-4 -16 -42 -16l-12 86q67 38 126.5 38t95 -26.5t35.5 -74.5q0 -30 -14 -61.5t-29 -52t-49 -51.5t-47 -41l-50 -38l138 -9l19 70q28 0 42 -17v-93h-257q-18 13 -18 44z" />
    <glyph glyph-name="uni00B3" unicode="&#xb3;" horiz-adv-x="361" 
d="M40 341q0 35 35 35q10 0 20 -5.5t13 -13.5q0 -35 16 -49t50 -14t52 18t18 47q0 57 -73 79q-23 12 -23 36q88 28 88 82q0 26 -16 42.5t-44.5 16.5t-59.5 -20l-7 -48q-4 -16 -42 -16l-12 86q67 38 125 38t91.5 -26.5t33.5 -74.5q0 -57 -73 -89q84 -33 84 -103
q0 -51 -37 -79.5t-101 -28.5t-101 27.5t-37 59.5z" />
    <glyph glyph-name="acute" unicode="&#xb4;" horiz-adv-x="266" 
d="M20 540l106 117q42 45 54.5 51.5t25 6.5t26.5 -14t14 -25t-3.5 -18t-12.5 -16q-14 -12 -50 -36l-139 -88q-21 5 -21 22z" />
    <glyph glyph-name="uni00B5" unicode="&#xb5;" horiz-adv-x="614" 
d="M52 -258q0 33 16 39l56 23v577l-56 23q-16 6 -16 39q68 8 101 8q53 0 53 -54v-241q0 -49 20 -72.5t67 -23.5q59 0 127 68v253l-56 23q-16 6 -16 39q68 8 101 8q53 0 53 -54v-307q0 -39 27 -39q22 0 45 17l17 -24q-49 -56 -100 -56q-71 0 -71 99q-26 -33 -73 -66t-92 -33
h-4q-25 0 -45 6v-198q0 -54 -53 -54h-101z" />
    <glyph glyph-name="paragraph" unicode="&#xb6;" horiz-adv-x="485" 
d="M82.5 279q-51.5 52 -51.5 126t42.5 125t116.5 51q17 0 53 -4v-349q-5 -1 -17 -1q-92 0 -143.5 52zM155.5 -187.5q-16.5 12.5 -16.5 31t12 34.5q70 0 101 16q18 9 26 30q17 41 17 133v516q107 0 149 8q9 -11 9 -22q0 -47 -76 -47v-360q0 -70 -27 -152.5t-70.5 -141
t-85.5 -58.5q-22 0 -38.5 12.5z" />
    <glyph glyph-name="periodcentered" unicode="&#xb7;" horiz-adv-x="224" 
d="M72 226.5q-14 14.5 -14 38.5t16 39.5t40 15.5t38.5 -14.5t14.5 -38.5t-16.5 -39.5t-40.5 -15.5t-38 14.5z" />
    <glyph glyph-name="cedilla" unicode="&#xb8;" horiz-adv-x="303" 
d="M52.5 -245.5q-32.5 24.5 -32.5 60t33 35.5q17 0 31 -14q0 -74 60 -74q34 0 54 18t20 53t-25.5 53.5t-70.5 18.5q-5 0 -27 -2l21 88q3 0 19 -1t24 -1l-9 -42q55 0 94 -25t39 -75t-38 -83.5t-99 -33.5t-93.5 24.5z" />
    <glyph glyph-name="uni00B9" unicode="&#xb9;" horiz-adv-x="276" 
d="M184 310l59 -11q0 -26 -16 -38h-173q0 30 16 34l47 13v282l-70 -14q-6 14 -6 24t6 18l109 37h28v-345z" />
    <glyph glyph-name="ordmasculine" unicode="&#xba;" horiz-adv-x="404" 
d="M85.5 403.5q-34.5 40.5 -34.5 103.5t45 105.5t112 42.5t104 -39.5t37 -97.5t-42.5 -106.5t-114.5 -48.5t-106.5 40.5zM88 265q-10 10 -10 22t2 22h244q10 -10 10 -22t-2 -22h-244zM122 503q0 -49 22 -81t58.5 -32t55.5 31t19 83.5t-21.5 88.5t-58.5 36q-75 0 -75 -126z
" />
    <glyph glyph-name="guillemotright" unicode="&#xbb;" horiz-adv-x="455" 
d="M49 130l102 137l-102 137q0 28 24 45l144 -148q15 -15 15 -34t-15 -34l-144 -148q-24 17 -24 45zM232 130l102 137l-102 137q0 28 24 45l144 -148q15 -15 15 -34t-15 -34l-144 -148q-24 17 -24 45z" />
    <glyph glyph-name="onequarter" unicode="&#xbc;" horiz-adv-x="757" 
d="M180 310l59 -11q0 -26 -16 -38h-173q0 30 16 34l47 13v282l-70 -14q-6 14 -6 24t6 18l109 37h28v-345zM231 15l208 640h15q19 0 28 -9l9 -12l-208 -640h-15q-21 0 -28 10zM433 137l194 258q46 0 46 -37v-219h37v-45h-37v-44q22 -5 53 -11q0 -26 -16 -38h-157q0 29 14 34
l40 13v46h-156q-18 13 -18 43zM492 139h115v156z" />
    <glyph glyph-name="onehalf" unicode="&#xbd;" horiz-adv-x="748" 
d="M176 310l59 -11q0 -26 -16 -38h-173q0 30 16 34l47 13v282l-70 -14q-6 14 -6 24t6 18l109 37h28v-345zM208 15l208 640h15q19 0 28 -9l9 -12l-208 -640h-15q-21 0 -28 10zM436 45l32 27q157 122 157 225q0 26 -16 42.5t-43.5 16.5t-60.5 -21l-7 -48q-4 -16 -42 -16
l-12 86q67 38 126.5 38t95 -26.5t35.5 -74.5q0 -30 -14 -61.5t-29 -52t-49 -51.5t-47 -41l-50 -38l138 -9l19 70q28 0 42 -17v-93h-257q-18 13 -18 44z" />
    <glyph glyph-name="threequarters" unicode="&#xbe;" horiz-adv-x="799" 
d="M36 341q0 35 35 35q10 0 20 -5.5t13 -13.5q0 -35 16 -49t50 -14t52 18t18 47q0 57 -73 79q-23 12 -23 36q88 28 88 82q0 26 -16 42.5t-44.5 16.5t-59.5 -20l-7 -48q-4 -16 -42 -16l-12 86q67 38 125 38t91.5 -26.5t33.5 -74.5q0 -57 -73 -89q84 -33 84 -103
q0 -51 -37 -79.5t-101 -28.5t-101 27.5t-37 59.5zM287 15l208 640h15q19 0 28 -9l9 -12l-208 -640h-15q-21 0 -28 10zM475 137l194 258q46 0 46 -37v-219h37v-45h-37v-44q22 -5 53 -11q0 -26 -16 -38h-157q0 29 14 34l40 13v46h-156q-18 13 -18 43zM534 139h115v156z" />
    <glyph glyph-name="questiondown" unicode="&#xbf;" horiz-adv-x="420" 
d="M30 -28q0 88 77 148q57 45 122 78l7 89q10 7 26.5 7t26.5 -7l10 -111q-14 0 -61.5 -27.5t-55.5 -34.5l-24 -24q-16 -16 -22 -31q-18 -45 -18 -89.5t25 -75t70 -30.5q89 0 89 99q20 20 42 20t34.5 -12.5t12.5 -35.5q0 -49 -47 -83.5t-128 -34.5t-133.5 42t-52.5 113z
M211 433q0 21 15.5 36t38 15t36 -13.5t13.5 -36t-15.5 -37.5t-35.5 -15q-52 0 -52 51z" />
    <glyph glyph-name="Agrave" unicode="&#xc0;" horiz-adv-x="653" 
d="M-5 0q0 32 16 39l62 23l208 556q14 37 40 37q16 0 32 -7l229 -581l86 -21q0 -20 -4 -29t-15 -17h-237q0 34 16 39l61 27l-58 149h-240l-56 -148l89 -21q0 -20 -4 -29t-15 -17h-210zM193 816q0 15 9 28.5t27 13.5t56 -20t142 -83l20 -12q1 -2 1 -11t-14 -17
q-171 51 -197 62q-44 19 -44 39zM210 267h200l-102 262z" />
    <glyph glyph-name="Aacute" unicode="&#xc1;" horiz-adv-x="653" 
d="M-5 0q0 32 16 39l62 23l208 556q14 37 40 37q16 0 32 -7l229 -581l86 -21q0 -20 -4 -29t-15 -17h-237q0 34 16 39l61 27l-58 149h-240l-56 -148l89 -21q0 -20 -4 -29t-15 -17h-210zM210 267h200l-102 262zM233 715q-14 8 -14 17t1 11q162 98 194 109q15 6 28.5 6
t22.5 -13.5t9 -28.5q0 -30 -184 -84z" />
    <glyph glyph-name="Acircumflex" unicode="&#xc2;" horiz-adv-x="653" 
d="M-5 0q0 32 16 39l62 23l208 556q14 37 40 37q16 0 32 -7l229 -581l86 -21q0 -20 -4 -29t-15 -17h-237q0 34 16 39l61 27l-58 149h-240l-56 -148l89 -21q0 -20 -4 -29t-15 -17h-210zM142 737l1 6l137 96q27 19 45 19t43 -19l137 -96q1 -3 1 -6q0 -14 -14 -22l-168 72
l-168 -72q-14 8 -14 22zM210 267h200l-102 262z" />
    <glyph glyph-name="Atilde" unicode="&#xc3;" horiz-adv-x="653" 
d="M-5 0q0 32 16 39l62 23l208 556q14 37 40 37q16 0 32 -7l229 -581l86 -21q0 -20 -4 -29t-15 -17h-237q0 34 16 39l61 27l-58 149h-240l-56 -148l89 -21q0 -20 -4 -29t-15 -17h-210zM161 737q0 28 33.5 57.5t80.5 29.5q25 0 74.5 -20.5t72.5 -20.5q41 0 70 50
q10 -11 10 -25q0 -26 -37 -56t-83 -30q-24 0 -72 20t-71 20q-40 0 -68 -48q-10 11 -10 23zM210 267h200l-102 262z" />
    <glyph glyph-name="Adieresis" unicode="&#xc4;" horiz-adv-x="653" 
d="M-5 0q0 32 16 39l62 23l208 556q14 37 40 37q16 0 32 -7l229 -581l86 -21q0 -20 -4 -29t-15 -17h-237q0 34 16 39l61 27l-58 149h-240l-56 -148l89 -21q0 -20 -4 -29t-15 -17h-210zM173 782q0 18 14 32t34.5 14t32.5 -12.5t12 -32t-14.5 -33.5t-32.5 -14q-46 0 -46 46z
M210 267h200l-102 262zM380 782q0 18 14 32t34.5 14t32.5 -12.5t12 -32t-14.5 -33.5t-32.5 -14q-46 0 -46 46z" />
    <glyph glyph-name="Aring" unicode="&#xc5;" horiz-adv-x="653" 
d="M-5 0q0 32 16 39l62 23l208 556q14 37 40 37q16 0 32 -7l229 -581l86 -21q0 -20 -4 -29t-15 -17h-237q0 34 16 39l61 27l-58 149h-240l-56 -148l89 -21q0 -20 -4 -29t-15 -17h-210zM210 267h200l-102 262zM219 770q0 37 32 62.5t82 25.5t75.5 -24t25.5 -58.5t-31.5 -64
t-83.5 -29.5t-76 25.5t-24 62.5zM272 765q0 -26 16 -43t40 -17t38.5 17t14.5 46.5t-15.5 49t-42.5 19.5q-51 0 -51 -72z" />
    <glyph glyph-name="AE" unicode="&#xc6;" horiz-adv-x="871" 
d="M-36 0q0 34 16 40l62 23l391 511l-79 21q0 33 19 46h427v-153q-34 0 -39 16l-33 91l-203 -16v-246h170l20 60q17 0 23.5 -3t15.5 -13v-140q-9 -10 -15.5 -13t-23.5 -3l-20 60h-170v-214l229 -21l31 122q20 0 29 -4t17 -15v-149h-471q0 34 16 39l63 23v219h-157l-164 -214
l90 -21q0 -20 -4 -28.5t-16 -17.5h-224zM321 333h117v153z" />
    <glyph glyph-name="Ccedilla" unicode="&#xc7;" horiz-adv-x="636" 
d="M48 289q0 90 39.5 172.5t119 138t191 55.5t191.5 -50l-18 -152q-44 3 -47 21l-13 84q-55 48 -131 48q-116 0 -172 -76t-58 -198q0 -124 59.5 -209.5t161.5 -85.5q86 0 138 59l13 113q43 0 56 -13l11 -123q-93 -81 -209 -85l-9 -41q55 0 94 -25t39 -75t-38 -83.5
t-99 -33.5t-93.5 24.5t-32.5 60t33 35.5q17 0 31 -14q0 -74 60 -74q34 0 54 18t20 53t-25.5 53.5t-70.5 18.5q-5 0 -27 -2l21 86q-143 10 -216 95.5t-73 204.5z" />
    <glyph glyph-name="Egrave" unicode="&#xc8;" horiz-adv-x="576" 
d="M45 0q0 34 16 39l63 23v512l-79 21q0 33 19 46h441v-153q-34 0 -39 16l-33 91l-223 -16v-228h190l20 75q17 0 23.5 -3t15.5 -13v-170q-9 -10 -15.5 -13t-23.5 -3l-20 75h-190v-232l249 -21l31 122q20 0 29 -4t17 -15v-149h-491zM144 816q0 15 9 28.5t27 13.5t56 -20
t142 -83l20 -12q1 -2 1 -11t-14 -17q-171 51 -197 62q-44 19 -44 39z" />
    <glyph glyph-name="Eacute" unicode="&#xc9;" horiz-adv-x="576" 
d="M45 0q0 34 16 39l63 23v512l-79 21q0 33 19 46h441v-153q-34 0 -39 16l-33 91l-223 -16v-228h190l20 75q17 0 23.5 -3t15.5 -13v-170q-9 -10 -15.5 -13t-23.5 -3l-20 75h-190v-232l249 -21l31 122q20 0 29 -4t17 -15v-149h-491zM218 715q-14 8 -14 17t1 11
q162 98 194 109q15 6 28.5 6t22.5 -13.5t9 -28.5q0 -30 -184 -84z" />
    <glyph glyph-name="Ecircumflex" unicode="&#xca;" horiz-adv-x="576" 
d="M45 0q0 34 16 39l63 23v512l-79 21q0 33 19 46h441v-153q-34 0 -39 16l-33 91l-223 -16v-228h190l20 60q17 0 23.5 -3t15.5 -13v-140q-9 -10 -15.5 -13t-23.5 -3l-20 60h-190v-232l249 -21l31 122q20 0 29 -4t17 -15v-149h-491zM115 737l1 6l137 96q27 19 45 19t43 -19
l137 -96q1 -3 1 -6q0 -14 -14 -22l-168 72l-168 -72q-14 8 -14 22z" />
    <glyph glyph-name="Edieresis" unicode="&#xcb;" horiz-adv-x="576" 
d="M45 0q0 34 16 39l63 23v512l-79 21q0 33 19 46h441v-153q-34 0 -39 16l-33 91l-223 -16v-228h190l20 75q17 0 23.5 -3t15.5 -13v-170q-9 -10 -15.5 -13t-23.5 -3l-20 75h-190v-232l249 -21l31 122q20 0 29 -4t17 -15v-149h-491zM150 782q0 18 14 32t34.5 14t32.5 -12.5
t12 -32t-14.5 -33.5t-32.5 -14q-46 0 -46 46zM357 782q0 18 14 32t34.5 14t32.5 -12.5t12 -32t-14.5 -33.5t-32.5 -14q-46 0 -46 46z" />
    <glyph glyph-name="Igrave" unicode="&#xcc;" horiz-adv-x="337" 
d="M30 816q0 15 9 28.5t27 13.5t56 -20t142 -83l20 -12q1 -2 1 -11t-14 -17q-171 51 -197 62q-44 19 -44 39zM45 0q0 34 16 39l63 23v512l-79 21q0 20 4 29t15 17h236q0 -34 -16 -39l-74 -23v-512l90 -21q0 -20 -4 -29t-15 -17h-236z" />
    <glyph glyph-name="Iacute" unicode="&#xcd;" horiz-adv-x="337" 
d="M45 0q0 34 16 39l63 23v512l-79 21q0 20 4 29t15 17h236q0 -34 -16 -39l-74 -23v-512l90 -21q0 -20 -4 -29t-15 -17h-236zM73 715q-14 8 -14 17t1 11q162 98 194 109q15 6 28.5 6t22.5 -13.5t9 -28.5q0 -30 -184 -84z" />
    <glyph glyph-name="Icircumflex" unicode="&#xce;" horiz-adv-x="337" 
d="M-14 737l1 6l137 96q27 19 45 19t43 -19l137 -96q1 -3 1 -6q0 -14 -14 -22l-168 72l-168 -72q-14 8 -14 22zM45 0q0 34 16 39l63 23v512l-79 21q0 20 4 29t15 17h236q0 -34 -16 -39l-74 -23v-512l90 -21q0 -20 -4 -29t-15 -17h-236z" />
    <glyph glyph-name="Idieresis" unicode="&#xcf;" horiz-adv-x="337" 
d="M24 782q0 18 14 32t34.5 14t32.5 -12.5t12 -32t-14.5 -33.5t-32.5 -14q-46 0 -46 46zM45 0q0 34 16 39l63 23v512l-79 21q0 20 4 29t15 17h236q0 -34 -16 -39l-74 -23v-512l90 -21q0 -20 -4 -29t-15 -17h-236zM242.5 748.5q-12.5 12.5 -12 32t14.5 33.5t34.5 14
t32.5 -12.5t12 -32t-14.5 -33.5t-34.5 -14t-32.5 12.5z" />
    <glyph glyph-name="Eth" unicode="&#xd0;" horiz-adv-x="714" 
d="M49 0q0 34 16 39l63 23v228l-70 -4q-9 10 -9 26.5t19 31t58 14.5h2v216l-79 21q0 33 19 46h284q152 0 232.5 -85.5t80.5 -210.5q0 -87 -38 -164.5t-115 -129t-177 -51.5h-286zM214 67q61 -21 129 -21q110 0 164 73.5t56 191.5q0 121 -57.5 202.5t-161.5 81.5
q-50 0 -130 -16v-226l121 -6q0 -36 -19 -45l-102 -6v-229z" />
    <glyph glyph-name="Ntilde" unicode="&#xd1;" horiz-adv-x="748" 
d="M45 0q0 34 16 39l63 23v512l-79 21q0 20 4 29t15 17h151l358 -484v417l-79 21q0 20 4 29t15 17h205q0 -34 -16 -39l-69 -23v-552q0 -15 -9 -22.5t-21.5 -7.5t-22.5 6l-396 532v-468l90 -21q0 -20 -4 -29t-15 -17h-210zM206 737q0 28 33.5 57.5t80.5 29.5q25 0 74.5 -20.5
t72.5 -20.5q41 0 70 50q10 -11 10 -25q0 -26 -37 -56t-83 -30q-24 0 -72 20t-71 20q-40 0 -68 -48q-10 11 -10 23z" />
    <glyph glyph-name="Ograve" unicode="&#xd2;" 
d="M67 181q-19 54 -19 118t22.5 127.5t63.5 115t104.5 82.5t139.5 31q152 0 232.5 -89.5t80.5 -218.5q0 -137 -86 -245q-41 -52 -104.5 -83t-140.5 -31t-138.5 26t-98.5 69.5t-56 97.5zM203 528q-54 -78 -54 -201t58.5 -206.5t165 -83.5t161.5 77.5t55 201t-58.5 207
t-166 83.5t-161.5 -78zM219 816q0 15 9 28.5t27 13.5t56 -20t142 -83l20 -12q1 -2 1 -11t-14 -17q-171 51 -197 62q-44 19 -44 39z" />
    <glyph glyph-name="Oacute" unicode="&#xd3;" 
d="M67 181q-19 54 -19 118t22.5 127.5t63.5 115t104.5 82.5t139.5 31q152 0 232.5 -89.5t80.5 -218.5q0 -137 -86 -245q-41 -52 -104.5 -83t-140.5 -31t-138.5 26t-98.5 69.5t-56 97.5zM203 528q-54 -78 -54 -201t58.5 -206.5t165 -83.5t161.5 77.5t55 201t-58.5 207
t-166 83.5t-161.5 -78zM281 715q-14 8 -14 17t1 11q162 98 194 109q15 6 28.5 6t22.5 -13.5t9 -28.5q0 -30 -184 -84z" />
    <glyph glyph-name="Ocircumflex" unicode="&#xd4;" 
d="M67 181q-19 54 -19 118t22.5 127.5t63.5 115t104.5 82.5t139.5 31q152 0 232.5 -89.5t80.5 -218.5q0 -137 -86 -245q-41 -52 -104.5 -83t-140.5 -31t-138.5 26t-98.5 69.5t-56 97.5zM203 528q-54 -78 -54 -201t58.5 -206.5t165 -83.5t161.5 77.5t55 201t-58.5 207
t-166 83.5t-161.5 -78zM193 737l1 6l137 96q27 19 45 19t43 -19l137 -96q1 -3 1 -6q0 -14 -14 -22l-168 72l-168 -72q-14 8 -14 22z" />
    <glyph glyph-name="Otilde" unicode="&#xd5;" 
d="M67 181q-19 54 -19 118t22.5 127.5t63.5 115t104.5 82.5t139.5 31q152 0 232.5 -89.5t80.5 -218.5q0 -137 -86 -245q-41 -52 -104.5 -83t-140.5 -31t-138.5 26t-98.5 69.5t-56 97.5zM203 528q-54 -78 -54 -201t58.5 -206.5t165 -83.5t161.5 77.5t55 201t-58.5 207
t-166 83.5t-161.5 -78zM205 737q0 28 33.5 57.5t80.5 29.5q25 0 74.5 -20.5t72.5 -20.5q41 0 70 50q10 -11 10 -25q0 -26 -37 -56t-83 -30q-24 0 -72 20t-71 20q-40 0 -68 -48q-10 11 -10 23z" />
    <glyph glyph-name="Odieresis" unicode="&#xd6;" 
d="M67 181q-19 54 -19 118t22.5 127.5t63.5 115t104.5 82.5t139.5 31q152 0 232.5 -89.5t80.5 -218.5q0 -137 -86 -245q-41 -52 -104.5 -83t-140.5 -31t-138.5 26t-98.5 69.5t-56 97.5zM203 528q-54 -78 -54 -201t58.5 -206.5t165 -83.5t161.5 77.5t55 201t-58.5 207
t-166 83.5t-161.5 -78zM230 782q0 18 14 32t34.5 14t32.5 -12.5t12 -32t-14.5 -33.5t-32.5 -14q-46 0 -46 46zM437 782q0 18 14 32t34.5 14t32.5 -12.5t12 -32t-14.5 -33.5t-32.5 -14q-46 0 -46 46z" />
    <glyph glyph-name="multiply" unicode="&#xd7;" horiz-adv-x="464" 
d="M42 65l149 202l-141 179q10 41 51 41l130 -166l122 166q50 0 61 -27l-141 -191l149 -190q-10 -41 -51 -41l-138 176l-130 -176q-50 0 -61 27z" />
    <glyph glyph-name="Oslash" unicode="&#xd8;" horiz-adv-x="740" 
d="M134 542q41 51 104.5 82t150 31t156.5 -39l84 118q36 0 49 -11q3 -3 10 -11l-93 -131q96 -89 96 -234q0 -137 -86 -245q-41 -52 -104.5 -83t-149 -31t-152.5 36l-89 -124q-43 0 -59 22l97 137q-100 87 -100 230.5t86 252.5zM203 528q-54 -78 -54 -198t51 -199l302 424
q-56 51 -132 51q-113 0 -167 -78zM241 84q53 -47 127 -47q111 0 166 78t55 196t-47 195z" />
    <glyph glyph-name="Ugrave" unicode="&#xd9;" horiz-adv-x="721" 
d="M28 595q0 20 4 29t15 17h240q0 -34 -16 -39l-74 -23v-375q0 -163 169 -163q89 0 134 37.5t45 127.5v368l-79 21q0 20 4 29t15 17h211q0 -34 -16 -39l-69 -23v-365q0 -102 -62 -164t-188 -62t-190 59t-64 164v363zM196 816q0 15 9 28.5t27 13.5t56 -20t142 -83l20 -12
q1 -2 1 -11t-14 -17q-171 51 -197 62q-44 19 -44 39z" />
    <glyph glyph-name="Uacute" unicode="&#xda;" horiz-adv-x="721" 
d="M28 595q0 20 4 29t15 17h240q0 -34 -16 -39l-74 -23v-375q0 -163 169 -163q89 0 134 37.5t45 127.5v368l-79 21q0 20 4 29t15 17h211q0 -34 -16 -39l-69 -23v-365q0 -102 -62 -164t-188 -62t-190 59t-64 164v363zM304 715q-14 8 -14 17t1 11q162 98 194 109q15 6 28.5 6
t22.5 -13.5t9 -28.5q0 -30 -184 -84z" />
    <glyph glyph-name="Ucircumflex" unicode="&#xdb;" horiz-adv-x="721" 
d="M28 595q0 20 4 29t15 17h240q0 -34 -16 -39l-74 -23v-375q0 -163 169 -163q89 0 134 37.5t45 127.5v368l-79 21q0 20 4 29t15 17h211q0 -34 -16 -39l-69 -23v-365q0 -102 -62 -164t-188 -62t-190 59t-64 164v363zM191 737l1 6l137 96q27 19 45 19t43 -19l137 -96
q1 -3 1 -6q0 -14 -14 -22l-168 72l-168 -72q-14 8 -14 22z" />
    <glyph glyph-name="Udieresis" unicode="&#xdc;" horiz-adv-x="721" 
d="M28 595q0 20 4 29t15 17h240q0 -34 -16 -39l-74 -23v-375q0 -163 169 -163q89 0 134 37.5t45 127.5v368l-79 21q0 20 4 29t15 17h211q0 -34 -16 -39l-69 -23v-365q0 -102 -62 -164t-188 -62t-190 59t-64 164v363zM223 802q0 18 14 32t34.5 14t32.5 -12.5t12 -32
t-14.5 -33.5t-32.5 -14q-46 0 -46 46zM430 802q0 18 14 32t34.5 14t32.5 -12.5t12 -32t-14.5 -33.5t-32.5 -14q-46 0 -46 46z" />
    <glyph glyph-name="Yacute" unicode="&#xdd;" horiz-adv-x="612" 
d="M-14 595q0 20 4 29t15 17h248q0 -34 -16 -39l-74 -23l162 -257l135 252l-79 21q0 20 4 29t15 17h217q0 -34 -16 -39l-74 -23l-175 -319v-193l90 -21q0 -20 -4 -29t-15 -17h-236q0 34 16 39l63 23v198l-201 314zM226 715q-14 8 -14 17t1 11q162 98 194 109q15 6 28.5 6
t22.5 -13.5t9 -28.5q0 -30 -184 -84z" />
    <glyph glyph-name="Thorn" unicode="&#xde;" horiz-adv-x="555" 
d="M45 0q0 34 16 39l63 23v512l-79 21q0 20 4 29t15 17h236q0 -34 -16 -39l-74 -23v-59h102q106 0 162 -49.5t56 -125.5t-67 -139.5t-174 -63.5q-43 0 -79 9v-84l90 -21q0 -20 -4 -29t-15 -17h-236zM210 195l30 -4q29 -4 45 -4q66 0 106.5 46t40.5 103.5t-34.5 95.5
t-98.5 38q-31 0 -89 -12v-263z" />
    <glyph glyph-name="germandbls" unicode="&#xdf;" horiz-adv-x="606" 
d="M26 0q0 33 16 39l56 23v335l-63 4q0 36 19 45l44 2q0 68 24 131.5t78.5 109t140 45.5t131 -45.5t45.5 -113.5q0 -40 -17 -69.5t-40.5 -45.5t-47.5 -30q-58 -32 -58 -65q0 -24 23.5 -42.5t56.5 -33.5t66.5 -33t57 -51.5t23.5 -85t-46.5 -91.5t-119.5 -40t-124 31t-51 83
q0 20 12.5 31t34 11t41.5 -20q0 -56 22 -75.5t60 -19.5t61 23t23 57.5t-24 57t-58 38.5t-67.5 33.5t-57.5 46.5t-24 69t17 67t42 41l49 28q59 33 59 90q0 41 -29.5 71t-89 30t-95.5 -40t-36 -143v-498h-154z" />
    <glyph glyph-name="agrave" unicode="&#xe0;" horiz-adv-x="467" 
d="M34 89q0 116 144 149l118 27v51q0 103 -72 103q-44 0 -63 -22t-19 -70q-17 -12 -37 -12t-33 13.5t-13 32.5q0 38 53 69.5t125 31.5t106.5 -35t34.5 -118v-219q0 -39 27 -39q22 0 45 17l17 -24q-49 -56 -100 -56q-71 0 -71 99q-18 -26 -63.5 -62.5t-94 -36.5t-76.5 29
t-28 72zM128.5 168q-18.5 -23 -18.5 -49.5t16.5 -45t46 -18.5t65 21.5t58.5 46.5v104l-113 -27q-36 -9 -54.5 -32zM120 654q-4 7 -4 18t14 25t26.5 14t21.5 -5q17 -8 54 -50l110 -120q0 -17 -21 -22l-140 88q-51 33 -61 52z" />
    <glyph glyph-name="aacute" unicode="&#xe1;" horiz-adv-x="467" 
d="M34 89q0 116 144 149l118 27v51q0 103 -72 103q-44 0 -63 -22t-19 -70q-17 -12 -37 -12t-33 13.5t-13 32.5q0 38 53 69.5t125 31.5t106.5 -35t34.5 -118v-219q0 -39 27 -39q22 0 45 17l17 -24q-49 -56 -100 -56q-71 0 -71 99q-18 -26 -63.5 -62.5t-94 -36.5t-76.5 29
t-28 72zM128.5 168q-18.5 -23 -18.5 -49.5t16.5 -45t46 -18.5t65 21.5t58.5 46.5v104l-113 -27q-36 -9 -54.5 -32zM132 540l106 117q42 45 54.5 51.5t25 6.5t26.5 -14t14 -25t-3.5 -18t-12.5 -16q-14 -12 -50 -36l-139 -88q-21 5 -21 22z" />
    <glyph glyph-name="acircumflex" unicode="&#xe2;" horiz-adv-x="467" 
d="M34 89q0 116 144 149l118 27v51q0 103 -72 103q-44 0 -63 -22t-19 -70q-17 -12 -37 -12t-33 13.5t-13 32.5q0 38 53 69.5t125 31.5t106.5 -35t34.5 -118v-219q0 -39 27 -39q22 0 45 17l17 -24q-49 -56 -100 -56q-71 0 -71 99q-18 -26 -63.5 -62.5t-94 -36.5t-76.5 29
t-28 72zM90 540l111 148q20 27 42.5 27t41.5 -27l111 -148q0 -10 -8 -16t-13 -6l-132 109l-132 -109q-5 0 -13 6t-8 16zM128.5 168q-18.5 -23 -18.5 -49.5t16.5 -45t46 -18.5t65 21.5t58.5 46.5v104l-113 -27q-36 -9 -54.5 -32z" />
    <glyph glyph-name="atilde" unicode="&#xe3;" horiz-adv-x="467" 
d="M34 89q0 116 144 149l118 27v51q0 103 -72 103q-44 0 -63 -22t-19 -70q-17 -12 -37 -12t-33 13.5t-13 32.5q0 38 53 69.5t125 31.5t106.5 -35t34.5 -118v-219q0 -39 27 -39q22 0 45 17l17 -24q-49 -56 -100 -56q-71 0 -71 99q-18 -26 -63.5 -62.5t-94 -36.5t-76.5 29
t-28 72zM60 559q0 28 33.5 57.5t80.5 29.5q25 0 74.5 -20.5t72.5 -20.5q41 0 70 50q10 -11 10 -25q0 -26 -37 -56t-83 -30q-24 0 -72 20t-71 20q-40 0 -68 -48q-10 11 -10 23zM128.5 168q-18.5 -23 -18.5 -49.5t16.5 -45t46 -18.5t65 21.5t58.5 46.5v104l-113 -27
q-36 -9 -54.5 -32z" />
    <glyph glyph-name="adieresis" unicode="&#xe4;" horiz-adv-x="467" 
d="M34 89q0 116 144 149l118 27v51q0 103 -72 103q-44 0 -63 -22t-19 -70q-17 -12 -37 -12t-33 13.5t-13 32.5q0 38 53 69.5t125 31.5t106.5 -35t34.5 -118v-219q0 -39 27 -39q22 0 45 17l17 -24q-49 -56 -100 -56q-71 0 -71 99q-18 -26 -63.5 -62.5t-94 -36.5t-76.5 29
t-28 72zM93 604q0 18 14 32t34.5 14t32.5 -12.5t12 -32t-14.5 -33.5t-32.5 -14q-46 0 -46 46zM128.5 168q-18.5 -23 -18.5 -49.5t16.5 -45t46 -18.5t65 21.5t58.5 46.5v104l-113 -27q-36 -9 -54.5 -32zM300 604q0 18 14 32t34.5 14t32.5 -12.5t12 -32t-14.5 -33.5t-32.5 -14
q-46 0 -46 46z" />
    <glyph glyph-name="aring" unicode="&#xe5;" horiz-adv-x="467" 
d="M34 89q0 116 144 149l118 27v51q0 103 -72 103q-44 0 -63 -22t-19 -70q-17 -12 -37 -12t-33 13.5t-13 32.5q0 38 53 69.5t125 31.5t106.5 -35t34.5 -118v-219q0 -39 27 -39q22 0 45 17l17 -24q-49 -56 -100 -56q-71 0 -71 99q-18 -26 -63.5 -62.5t-94 -36.5t-76.5 29
t-28 72zM128.5 168q-18.5 -23 -18.5 -49.5t16.5 -45t46 -18.5t65 21.5t58.5 46.5v104l-113 -27q-36 -9 -54.5 -32zM124 627q0 37 32 62.5t82 25.5t75.5 -24t25.5 -58.5t-31.5 -64t-83.5 -29.5t-76 25.5t-24 62.5zM177 622q0 -26 16 -43t40 -17t38.5 17t14.5 46.5t-15.5 49
t-42.5 19.5q-51 0 -51 -72z" />
    <glyph glyph-name="ae" unicode="&#xe6;" horiz-adv-x="725" 
d="M34 89q0 116 144 149l118 27v51q0 103 -72 103q-44 0 -63 -22t-19 -70q-17 -12 -37 -12t-33 13.5t-13 32.5q0 38 53 69.5t136 31.5t113 -62q62 62 148 62q67 0 115 -42q58 -48 62 -174h-301q0 -95 40.5 -143t104.5 -48q35 0 74 17t62 40l17 -24q-26 -37 -76.5 -68.5
t-98.5 -31.5q-141 0 -191 113q-90 -113 -176 -113q-51 0 -79 29t-28 72zM128.5 168q-18.5 -23 -18.5 -49.5t16.5 -45t44.5 -18.5q65 0 136 71q-14 41 -14 100l-110 -26q-36 -9 -54.5 -32zM386 288l205 3q-1 66 -26.5 97t-63.5 31q-102 0 -115 -131z" />
    <glyph glyph-name="ccedilla" unicode="&#xe7;" horiz-adv-x="461" 
d="M40 225q0 99 62 168t158 69q63 0 114 -32.5t51 -87.5q0 -22 -12 -34t-34 -12t-42 20q-4 103 -83 103q-121 0 -121 -181q0 -85 38 -134t106 -49q33 0 67 15q46 19 69 42l17 -24l-12 -13q-80 -87 -164 -87l-9 -41q55 0 94 -25t39 -75t-38 -83.5t-99 -33.5t-93.5 24.5
t-32.5 60t33 35.5q17 0 31 -14q0 -74 60 -74q34 0 54 18t20 53t-25.5 53.5t-70.5 18.5q-5 0 -27 -2l21 88q-85 12 -127 76t-44 158z" />
    <glyph glyph-name="egrave" unicode="&#xe8;" horiz-adv-x="472" 
d="M101.5 394q61.5 68 154.5 68q67 0 116 -42q57 -48 61 -174h-301q0 -95 40.5 -143t107 -48t133.5 57l17 -24q-89 -100 -175 -100q-60 0 -103.5 20.5t-67.5 55.5q-44 68 -44 165t61.5 165zM133 288l205 3q-1 66 -26.5 97t-63.5 31q-102 0 -115 -131zM142 658q-3 7 -3 18
t14 25t26.5 14t21.5 -5q17 -8 54 -50l110 -120q0 -17 -21 -22l-140 88q-53 34 -62 52z" />
    <glyph glyph-name="eacute" unicode="&#xe9;" horiz-adv-x="472" 
d="M101.5 394q61.5 68 154.5 68q67 0 116 -42q57 -48 61 -174h-301q0 -95 40.5 -143t107 -48t133.5 57l17 -24q-89 -100 -175 -100q-60 0 -103.5 20.5t-67.5 55.5q-44 68 -44 165t61.5 165zM133 288l205 3q-1 66 -26.5 97t-63.5 31q-102 0 -115 -131zM153 540l107 117
q38 43 52 50.5t26.5 7.5t26.5 -14t14 -25t-3.5 -18t-12.5 -16q-11 -10 -49 -36l-140 -88q-21 5 -21 22z" />
    <glyph glyph-name="ecircumflex" unicode="&#xea;" horiz-adv-x="472" 
d="M101.5 394q61.5 68 154.5 68q67 0 116 -42q57 -48 61 -174h-301q0 -95 40.5 -143t107 -48t133.5 57l17 -24q-89 -100 -175 -100q-60 0 -103.5 20.5t-67.5 55.5q-44 68 -44 165t61.5 165zM108 540l111 148q20 27 42.5 27t41.5 -27l111 -148q0 -10 -8 -16t-13 -6l-132 109
l-132 -109q-5 0 -13 6t-8 16zM133 288l205 3q-1 66 -26.5 97t-63.5 31q-102 0 -115 -131z" />
    <glyph glyph-name="edieresis" unicode="&#xeb;" horiz-adv-x="472" 
d="M101.5 394q61.5 68 154.5 68q67 0 116 -42q57 -48 61 -174h-301q0 -95 40.5 -143t107 -48t133.5 57l17 -24q-89 -100 -175 -100q-60 0 -103.5 20.5t-67.5 55.5q-44 68 -44 165t61.5 165zM115 604q0 18 14 32t34.5 14t32.5 -12.5t12 -32t-14.5 -33.5t-32.5 -14
q-46 0 -46 46zM133 288l205 3q-1 66 -26.5 97t-63.5 31q-102 0 -115 -131zM322 604q0 18 14 32t34.5 14t32.5 -12.5t12 -32t-14.5 -33.5t-32.5 -14q-46 0 -46 46z" />
    <glyph glyph-name="igrave" unicode="&#xec;" horiz-adv-x="279" 
d="M-12 658q-4 7 -4 18t14 25t26.5 14t21.5 -5q17 -8 54 -50l110 -120q0 -17 -21 -22l-140 88q-51 33 -61 52zM29 0q0 33 16 39l56 23v319l-56 23q-16 6 -16 39q68 8 101 8q53 0 53 -54v-330l82 -21q0 -20 -4 -29t-15 -17h-217z" />
    <glyph glyph-name="iacute" unicode="&#xed;" horiz-adv-x="279" 
d="M29 0q0 33 16 39l56 23v319l-56 23q-16 6 -16 39q68 8 101 8q53 0 53 -54v-330l82 -21q0 -20 -4 -29t-15 -17h-217zM45 538l107 117q38 43 52 50.5t26.5 7.5t26.5 -14t14 -25t-3.5 -18t-12.5 -16q-11 -10 -49 -36l-140 -88q-21 5 -21 22z" />
    <glyph glyph-name="icircumflex" unicode="&#xee;" horiz-adv-x="279" 
d="M-32 540l111 148q20 27 42.5 27t41.5 -27l111 -148q0 -10 -8 -16t-13 -6l-132 109l-132 -109q-5 0 -13 6t-8 16zM29 0q0 33 16 39l56 23v319l-56 23q-16 6 -16 39q68 8 101 8q53 0 53 -54v-330l82 -21q0 -20 -4 -29t-15 -17h-217z" />
    <glyph glyph-name="idieresis" unicode="&#xef;" horiz-adv-x="279" 
d="M-10 604q0 18 14 32t34.5 14t32.5 -12.5t12 -32t-14.5 -33.5t-32.5 -14q-46 0 -46 46zM29 0q0 33 16 39l56 23v319l-56 23q-16 6 -16 39q68 8 101 8q53 0 53 -54v-330l82 -21q0 -20 -4 -29t-15 -17h-217zM177 604q0 18 14 32t34.5 14t32.5 -12.5t12 -32t-14.5 -33.5
t-32.5 -14q-46 0 -46 46z" />
    <glyph glyph-name="eth" unicode="&#xf0;" horiz-adv-x="568" 
d="M101.5 49q-60.5 61 -60.5 149.5t54 155t151 66.5q60 0 107.5 -17t71.5 -41q-2 60 -45.5 127.5t-119.5 123.5l-158 -96q-37 0 -37 24l158 96q-68 45 -163 73q0 24 32.5 24t88.5 -23t93 -43l108 66q37 0 37 -24l-107 -65q201 -134 201 -369q0 -112 -57 -196
q-29 -42 -79.5 -67t-116.5 -25q-98 0 -158.5 61zM166 312.5q-35 -52.5 -35 -117.5t37 -111.5t100 -46.5q157 0 157 274q-21 21 -61.5 37.5t-101.5 16.5t-96 -52.5z" />
    <glyph glyph-name="ntilde" unicode="&#xf1;" horiz-adv-x="574" 
d="M29 0q0 33 16 39l56 23v319l-56 23q-16 6 -16 39q68 8 101 8q53 0 53 -54v-34q92 99 170 99q65 0 97.5 -36.5t32.5 -126.5v-232l82 -21q0 -20 -4 -29t-15 -17h-217q0 33 16 39l56 23v237q0 92 -87 92q-62 0 -131 -69v-255l82 -21q0 -20 -4 -29t-15 -17h-217zM120 559
q0 28 33.5 57.5t80.5 29.5q25 0 74.5 -20.5t72.5 -20.5q41 0 70 50q10 -11 10 -25q0 -26 -37 -56t-83 -30q-24 0 -72 20t-71 20q-40 0 -68 -48q-10 11 -10 23z" />
    <glyph glyph-name="ograve" unicode="&#xf2;" horiz-adv-x="534" 
d="M92.5 53q-52.5 65 -52.5 167t68.5 172t170.5 70t159.5 -63.5t57.5 -159.5t-64.5 -173.5t-175.5 -77.5t-163.5 65zM161 362.5q-31 -56.5 -31 -140t38 -137.5t103.5 -54t99 51.5t33.5 136t-37.5 142.5t-106 58t-99.5 -56.5zM160 658q-4 7 -4 18t14 25t26.5 14t21.5 -5
q17 -8 54 -50l110 -120q0 -17 -21 -22l-140 88q-51 33 -61 52z" />
    <glyph glyph-name="oacute" unicode="&#xf3;" horiz-adv-x="534" 
d="M92.5 53q-52.5 65 -52.5 167t68.5 172t170.5 70t159.5 -63.5t57.5 -159.5t-64.5 -173.5t-175.5 -77.5t-163.5 65zM161 362.5q-31 -56.5 -31 -140t38 -137.5t103.5 -54t99 51.5t33.5 136t-37.5 142.5t-106 58t-99.5 -56.5zM192 540l106 117q42 45 54.5 51.5t25 6.5
t26.5 -14t14 -25t-3.5 -18t-12.5 -16q-14 -12 -50 -36l-139 -88q-21 5 -21 22z" />
    <glyph glyph-name="ocircumflex" unicode="&#xf4;" horiz-adv-x="534" 
d="M92.5 53q-52.5 65 -52.5 167t68.5 172t170.5 70t159.5 -63.5t57.5 -159.5t-64.5 -173.5t-175.5 -77.5t-163.5 65zM122 540l111 148q20 27 42.5 27t41.5 -27l111 -148q0 -10 -8 -16t-13 -6l-132 109l-132 -109q-5 0 -13 6t-8 16zM161 362.5q-31 -56.5 -31 -140t38 -137.5
t103.5 -54t99 51.5t33.5 136t-37.5 142.5t-106 58t-99.5 -56.5z" />
    <glyph glyph-name="otilde" unicode="&#xf5;" horiz-adv-x="534" 
d="M92.5 53q-52.5 65 -52.5 167t68.5 172t170.5 70t159.5 -63.5t57.5 -159.5t-64.5 -173.5t-175.5 -77.5t-163.5 65zM98 559q0 28 33.5 57.5t80.5 29.5q25 0 74.5 -20.5t72.5 -20.5q41 0 70 50q10 -11 10 -25q0 -26 -37 -56t-83 -30q-24 0 -72 20t-71 20q-40 0 -68 -48
q-10 11 -10 23zM161 362.5q-31 -56.5 -31 -140t38 -137.5t103.5 -54t99 51.5t33.5 136t-37.5 142.5t-106 58t-99.5 -56.5z" />
    <glyph glyph-name="odieresis" unicode="&#xf6;" horiz-adv-x="534" 
d="M92.5 53q-52.5 65 -52.5 167t68.5 172t170.5 70t159.5 -63.5t57.5 -159.5t-64.5 -173.5t-175.5 -77.5t-163.5 65zM124 604q0 18 14 32t34.5 14t32.5 -12.5t12 -32t-14.5 -33.5t-32.5 -14q-46 0 -46 46zM161 362.5q-31 -56.5 -31 -140t38 -137.5t103.5 -54t99 51.5
t33.5 136t-37.5 142.5t-106 58t-99.5 -56.5zM331 604q0 18 14 32t34.5 14t32.5 -12.5t12 -32t-14.5 -33.5t-32.5 -14q-46 0 -46 46z" />
    <glyph glyph-name="divide" unicode="&#xf7;" horiz-adv-x="512" 
d="M67 236q-14 11 -14 32.5t3 29.5h389q14 -11 14 -32.5t-3 -29.5h-389zM214 80.5q-14 14.5 -14 38.5t16 39.5t40 15.5t38.5 -14.5t14.5 -38.5t-16.5 -39.5t-40.5 -15.5t-38 14.5zM214 376.5q-14 14.5 -14 38.5t16 39.5t40 15.5t38.5 -14.5t14.5 -38.5t-16.5 -39.5
t-40.5 -15.5t-38 14.5z" />
    <glyph glyph-name="oslash" unicode="&#xf8;" horiz-adv-x="532" 
d="M40 225q0 96 67.5 165.5t163.5 69.5q61 0 106 -22l51 75q40 0 56 -20l-59 -86q67 -64 67 -164t-64 -176.5t-169 -76.5q-61 0 -107 20l-47 -69q-40 0 -56 20l56 81q-65 59 -65 183zM129 219q0 -59 23 -108l189 275q-32 31 -78 31q-134 0 -134 -198zM188 62q35 -29 79 -29
q68 0 101 51t33 125.5t-24 127.5z" />
    <glyph glyph-name="ugrave" unicode="&#xf9;" horiz-adv-x="563" 
d="M15 443q68 8 101 8q53 0 53 -54v-241q0 -49 20 -72.5t67 -23.5q59 0 127 68v253l-56 23q-16 6 -16 39q91 8 101 8q53 0 53 -54v-307q0 -39 27 -39q22 0 45 17l17 -24q-49 -56 -100 -56q-71 0 -71 99q-26 -33 -73 -66t-92 -33q-65 0 -98 37t-33 127v229l-56 23
q-16 6 -16 39zM158 658q-4 7 -4 18t14 25t26.5 14t21.5 -5q17 -8 54 -50l110 -120q0 -17 -21 -22l-140 88q-51 33 -61 52z" />
    <glyph glyph-name="uacute" unicode="&#xfa;" horiz-adv-x="563" 
d="M15 443q68 8 101 8q53 0 53 -54v-241q0 -49 20 -72.5t67 -23.5q59 0 127 68v253l-56 23q-16 6 -16 39q91 8 101 8q53 0 53 -54v-307q0 -39 27 -39q22 0 45 17l17 -24q-49 -56 -100 -56q-71 0 -71 99q-26 -33 -73 -66t-92 -33q-65 0 -98 37t-33 127v229l-56 23
q-16 6 -16 39zM199 540l107 117q38 43 52 50.5t26.5 7.5t26.5 -14t14 -25t-3.5 -18t-12.5 -16q-11 -10 -49 -36l-140 -88q-21 5 -21 22z" />
    <glyph glyph-name="ucircumflex" unicode="&#xfb;" horiz-adv-x="563" 
d="M15 443q68 8 101 8q53 0 53 -54v-241q0 -49 20 -72.5t67 -23.5q59 0 127 68v253l-56 23q-16 6 -16 39q91 8 101 8q53 0 53 -54v-307q0 -39 27 -39q22 0 45 17l17 -24q-49 -56 -100 -56q-71 0 -71 99q-26 -33 -73 -66t-92 -33q-65 0 -98 37t-33 127v229l-56 23
q-16 6 -16 39zM120 540l111 148q20 27 42.5 27t41.5 -27l111 -148q0 -10 -8 -16t-13 -6l-132 109l-132 -109q-5 0 -13 6t-8 16z" />
    <glyph glyph-name="udieresis" unicode="&#xfc;" horiz-adv-x="563" 
d="M15 443q68 8 101 8q53 0 53 -54v-241q0 -49 20 -72.5t67 -23.5q59 0 127 68v253l-56 23q-16 6 -16 39q91 8 101 8q53 0 53 -54v-307q0 -39 27 -39q22 0 45 17l17 -24q-49 -56 -100 -56q-71 0 -71 99q-26 -33 -73 -66t-92 -33q-65 0 -98 37t-33 127v229l-56 23
q-16 6 -16 39zM123 604q0 18 14 32t34.5 14t32.5 -12.5t12 -32t-14.5 -33.5t-32.5 -14q-46 0 -46 46zM330 604q0 18 14 32t34.5 14t32.5 -12.5t12 -32t-14.5 -33.5t-32.5 -14q-46 0 -46 46z" />
    <glyph glyph-name="yacute" unicode="&#xfd;" horiz-adv-x="494" 
d="M11.5 -257q-16.5 13 -16.5 31.5t12 33.5h62q62 0 83.5 26.5t75.5 161.5l-158 380l-69 21q0 20 4 29t15 17h200q0 -33 -16 -39l-54 -23l120 -290l112 285l-75 21q0 20 4 29t15 17h172q0 -32 -16 -39l-49 -23l-152 -381q-42 -105 -104 -187.5t-121 -82.5q-28 0 -44.5 13z
M200 540l106 117q42 45 54.5 51.5t25 6.5t26.5 -14t14 -25t-3.5 -18t-12.5 -16q-14 -12 -50 -36l-139 -88q-21 5 -21 22z" />
    <glyph glyph-name="thorn" unicode="&#xfe;" horiz-adv-x="529" 
d="M-1 -258q0 33 16 39l56 23v860l-56 23q-16 6 -16 39q68 8 101 8q53 0 53 -54v-317q91 99 164 99q90 0 131 -63t41 -163.5t-64 -174t-171 -73.5q-52 0 -101 14v-193l82 -21q0 -20 -4 -29t-15 -17h-217zM153 71q39 -37 98 -37q75 0 110 52t35 142q0 163 -115 163
q-59 0 -128 -69v-251z" />
    <glyph glyph-name="ydieresis" unicode="&#xff;" horiz-adv-x="494" 
d="M11.5 -257q-16.5 13 -16.5 31.5t12 33.5h62q62 0 83.5 26.5t75.5 161.5l-158 380l-69 21q0 20 4 29t15 17h200q0 -33 -16 -39l-54 -23l120 -290l112 285l-75 21q0 20 4 29t15 17h172q0 -32 -16 -39l-49 -23l-152 -381q-42 -105 -104 -187.5t-121 -82.5q-28 0 -44.5 13z
M118 604q0 18 14 32t34.5 14t32.5 -12.5t12 -32t-14.5 -33.5t-32.5 -14q-46 0 -46 46zM325 604q0 18 14 32t34.5 14t32.5 -12.5t12 -32t-14.5 -33.5t-32.5 -14q-46 0 -46 46z" />
    <glyph glyph-name="dotlessi" unicode="&#x131;" horiz-adv-x="279" 
d="M29 0q0 33 16 39l56 23v319l-56 23q-16 6 -16 39q68 8 101 8q53 0 53 -54v-330l82 -21q0 -20 -4 -29t-15 -17h-217z" />
    <glyph glyph-name="Lslash" unicode="&#x141;" horiz-adv-x="549" 
d="M48 0q0 34 16 39l63 23v245l-64 -11q-15 12 -15 35v3l79 14v226l-79 21q0 20 4 29t15 17h236q0 -34 -16 -39l-74 -23v-216l115 21q15 -12 15 -33v-5l-130 -23v-256l249 -21l21 122q20 0 29 -4t17 -15v-149h-481z" />
    <glyph glyph-name="lslash" unicode="&#x142;" horiz-adv-x="296" 
d="M31 0q0 33 16 39l56 23v283l-57 -13q-15 12 -15 35v3l72 16v278l-56 23q-16 6 -16 39q91 8 101 8q53 0 53 -54v-275l66 15q15 -12 15 -33v-5l-81 -18v-297l82 -21q0 -20 -4 -29t-15 -17h-217z" />
    <glyph glyph-name="OE" unicode="&#x152;" horiz-adv-x="955" 
d="M67 181q-19 54 -19 118t22.5 127.5t63.5 115t104.5 82.5t129 31t115.5 -14h401v-153q-34 0 -39 16l-33 91l-223 -16v-228h190l20 60q17 0 23.5 -3t15.5 -13v-140q-9 -10 -15.5 -13t-23.5 -3l-20 60h-190v-232l249 -21l31 122q20 0 29 -4t17 -15v-149h-465
q-42 -12 -104.5 -12t-124 26t-98.5 69.5t-56 97.5zM203 528q-54 -78 -54 -201t58.5 -206.5t160.5 -83.5q79 0 135 45v473q-56 51 -133 51q-113 0 -167 -78z" />
    <glyph glyph-name="oe" unicode="&#x153;" horiz-adv-x="836" 
d="M92.5 53q-52.5 65 -52.5 167t68.5 172t164.5 70q121 0 181 -82q63 82 166 82q67 0 116 -42q57 -48 61 -174h-301q0 -95 40.5 -143t104.5 -48q35 0 74 17t62 40l17 -24q-26 -37 -76.5 -68.5t-98.5 -31.5q-125 0 -178 89q-69 -89 -182.5 -89t-166 65zM161 362.5
q-31 -56.5 -31 -140t38 -137.5t103.5 -54t99 51.5t33.5 136t-37.5 142.5t-106 58t-99.5 -56.5zM497 288l205 3q-1 66 -26.5 97t-63.5 31q-102 0 -115 -131z" />
    <glyph glyph-name="Scaron" unicode="&#x160;" horiz-adv-x="523" 
d="M43 50l16 135q14 14 48 14q6 0 9 -1l11 -122q16 -14 50 -27.5t85 -13.5t87 32.5t36 83.5t-32.5 80.5t-78.5 47t-92 37.5t-78.5 60t-32.5 108.5t49.5 119.5t137.5 51q40 0 83.5 -12.5t58.5 -19.5t48 -24l-19 -136q-44 3 -47 21l-14 86q-52 38 -106 38t-83 -28.5t-29 -79.5
q0 -59 65 -92q29 -14 64 -27.5t69.5 -29.5t63.5 -36.5t47 -55.5t18 -81q0 -79 -57 -134.5t-160.5 -55.5t-216.5 62zM76 836q0 14 14 22l168 -72l168 72q14 -8 14 -22l-1 -6l-137 -96q-27 -19 -44.5 -19t-43.5 19l-137 96q-1 3 -1 6z" />
    <glyph glyph-name="scaron" unicode="&#x161;" horiz-adv-x="414" 
d="M34 102q0 20 12.5 31t34 11t41.5 -20q1 -55 23 -75t60 -20t60.5 23t22 58.5t-24.5 56t-58.5 32.5t-68.5 26t-57.5 43.5t-23.5 76.5t40 82t109 35t114 -24.5t45 -60.5q0 -17 -12.5 -29t-32.5 -12t-37 12q-4 73 -73 73q-35 0 -56 -19.5t-21 -49.5t25 -50t61 -33t72 -28.5
t61 -45t25 -78.5t-46.5 -89t-119.5 -40t-124 31t-51 83zM227 518h-6q-17 -2 -39 27l-111 148q0 10 8 16t13 6l132 -109l132 109q5 0 13 -6t8 -16l-111 -148q-20 -27 -39 -27z" />
    <glyph glyph-name="Ydieresis" unicode="&#x178;" horiz-adv-x="612" 
d="M-14 595q0 20 4 29t15 17h248q0 -34 -16 -39l-74 -23l162 -257l135 252l-79 21q0 20 4 29t15 17h217q0 -34 -16 -39l-74 -23l-175 -319v-193l90 -21q0 -20 -4 -29t-15 -17h-236q0 34 16 39l63 23v198l-201 314zM160 802q0 18 14 32t34.5 14t32.5 -12.5t12 -32
t-14.5 -33.5t-32.5 -14q-46 0 -46 46zM367 802q0 18 14 32t34.5 14t32.5 -12.5t12 -32t-14.5 -33.5t-32.5 -14q-46 0 -46 46z" />
    <glyph glyph-name="Zcaron" unicode="&#x17d;" horiz-adv-x="576" 
d="M38 25q0 11 7 21l350 533l-266 16l-33 -101q-5 -16 -39 -16v163h433q25 0 25 -24q0 -12 -7 -22l-347 -528l295 -21l31 132q20 0 29 -4t17 -15v-159h-469q-26 0 -26 25zM122 830q-1 1 -1 10.5t14 17.5l168 -72l168 72q14 -8 14 -17.5t-1 -10.5l-137 -96q-27 -19 -44.5 -19
t-43.5 19z" />
    <glyph glyph-name="zcaron" unicode="&#x17e;" horiz-adv-x="438" 
d="M28 25q0 11 7 21l247 339l-166 12l-15 -71q-3 -16 -38 -16l-13 133h316q12 0 18.5 -7t6.5 -18t-7 -21l-246 -339l194 -12l11 97q32 0 48 -19l13 -124h-350q-26 0 -26 25zM89 693q0 10 8 16t13 6l132 -109l132 109q5 0 13 -6t8 -16l-111 -148q-19 -27 -41 -27t-43 27z" />
    <glyph glyph-name="florin" unicode="&#x192;" horiz-adv-x="320" 
d="M-100 -146q0 22 12 38h56q74 0 94 8q41 17 47 97q2 22 2 49v228h-93q0 25 10 39h83v135q0 98 73 192t160 94q29 0 44.5 -16t15.5 -38t-12 -38h-56q-74 0 -92 -7q-40 -15 -48 -87q-3 -25 -3 -60v-175h112q0 -29 -10 -39h-102v-188q0 -101 -74.5 -193.5t-158.5 -92.5
q-29 0 -44.5 16t-15.5 38z" />
    <glyph glyph-name="circumflex" unicode="&#x2c6;" horiz-adv-x="346" 
d="M20 540l111 148q20 27 42 27q24 -3 42 -27l111 -148q0 -10 -8 -16t-13 -6l-132 109l-132 -109q-5 0 -13 6t-8 16z" />
    <glyph glyph-name="caron" unicode="&#x2c7;" horiz-adv-x="346" 
d="M20 693q0 10 8 16t13 6l132 -109l132 109q5 0 13 -6t8 -16l-111 -148q-19 -27 -41 -27t-43 27z" />
    <glyph glyph-name="breve" unicode="&#x2d8;" horiz-adv-x="342" 
d="M20 673q0 23 31 23q2 -22 37 -52.5t83.5 -30.5t81 26t38.5 57q31 0 31 -23q0 -46 -46.5 -88t-105 -42t-104.5 42t-46 88z" />
    <glyph glyph-name="dotaccent" unicode="&#x2d9;" horiz-adv-x="171" 
d="M40.5 552q-15.5 16 -15.5 42.5t18 43.5t44.5 17t42.5 -16t16 -42t-18.5 -43.5t-45 -17.5t-42 16z" />
    <glyph glyph-name="ring" unicode="&#x2da;" horiz-adv-x="255" 
d="M20 627q0 37 32 62.5t82 25.5t75.5 -24t25.5 -58.5t-31.5 -64t-83.5 -29.5t-76 25.5t-24 62.5zM73 622q0 -26 16 -43t40 -17t38.5 17t14.5 46.5t-15.5 49t-42.5 19.5q-51 0 -51 -72z" />
    <glyph glyph-name="ogonek" unicode="&#x2db;" horiz-adv-x="315" 
d="M61.5 -228.5q-32.5 35.5 -32.5 89.5t45.5 106.5t96.5 59.5v-29q-35 -14 -56.5 -51.5t-21.5 -75.5t26.5 -58t56.5 -20q49 0 90 25l12 8l16 -23q-19 -24 -62 -45.5t-71 -21.5q-67 0 -99.5 35.5z" />
    <glyph glyph-name="tilde" unicode="&#x2dc;" horiz-adv-x="580" 
d="M104 559q0 28 33.5 57.5t80.5 29.5q25 0 74.5 -20.5t72.5 -20.5q41 0 70 50q10 -11 10 -25q0 -26 -37 -56t-83 -30q-24 0 -72 20t-71 20q-40 0 -68 -48q-10 11 -10 23z" />
    <glyph glyph-name="hungarumlaut" unicode="&#x2dd;" horiz-adv-x="435" 
d="M20 540l106 117q42 45 54.5 51.5t25 6.5t26.5 -14t14 -25t-3.5 -18t-12.5 -16q-14 -12 -50 -36l-139 -88q-21 5 -21 22zM189 540l107 117q38 43 52 50.5t26.5 7.5t26.5 -14t14 -25t-3.5 -18t-12.5 -16q-11 -10 -49 -36l-140 -88q-21 5 -21 22z" />
    <glyph glyph-name="pi" unicode="&#x3c0;" horiz-adv-x="594" 
d="M30 0q0 33 16 39l56 23v314l-72 21q0 20 4 29t15 17h517q0 -34 -16 -39l-66 -24v-290q0 -39 27 -39q22 0 45 17l17 -24q-49 -56 -100 -56q-71 0 -71 99v294h-218v-314l82 -21q0 -20 -4 -29t-15 -17h-217z" />
    <glyph glyph-name="uni2000" unicode="&#x2000;" horiz-adv-x="429" 
 />
    <glyph glyph-name="uni2001" unicode="&#x2001;" horiz-adv-x="858" 
 />
    <glyph glyph-name="uni2002" unicode="&#x2002;" horiz-adv-x="429" 
 />
    <glyph glyph-name="uni2003" unicode="&#x2003;" horiz-adv-x="858" 
 />
    <glyph glyph-name="uni2004" unicode="&#x2004;" horiz-adv-x="286" 
 />
    <glyph glyph-name="uni2005" unicode="&#x2005;" horiz-adv-x="214" 
 />
    <glyph glyph-name="uni2006" unicode="&#x2006;" horiz-adv-x="143" 
 />
    <glyph glyph-name="uni2007" unicode="&#x2007;" horiz-adv-x="143" 
 />
    <glyph glyph-name="uni2008" unicode="&#x2008;" horiz-adv-x="107" 
 />
    <glyph glyph-name="uni2009" unicode="&#x2009;" horiz-adv-x="171" 
 />
    <glyph glyph-name="uni200A" unicode="&#x200a;" horiz-adv-x="47" 
 />
    <glyph glyph-name="uni2010" unicode="&#x2010;" horiz-adv-x="360" 
d="M249 220l-111 2q-43 0 -76 -4q-3 5 -3 19v11q0 54 53 54l111 -2q43 0 76 4q3 -15 3 -19v-11q0 -54 -53 -54z" />
    <glyph glyph-name="uni2011" unicode="&#x2011;" horiz-adv-x="360" 
d="M249 220l-111 2q-43 0 -76 -4q-3 5 -3 19v11q0 54 53 54l111 -2q43 0 76 4q3 -15 3 -19v-11q0 -54 -53 -54z" />
    <glyph glyph-name="figuredash" unicode="&#x2012;" horiz-adv-x="360" 
d="M249 220l-111 2q-43 0 -76 -4q-3 5 -3 19v11q0 54 53 54l111 -2q43 0 76 4q3 -15 3 -19v-11q0 -54 -53 -54z" />
    <glyph glyph-name="endash" unicode="&#x2013;" horiz-adv-x="686" 
d="M77 235q-14 11 -14 34t3 30h539q14 -11 14 -34t-3 -30h-539z" />
    <glyph glyph-name="emdash" unicode="&#x2014;" horiz-adv-x="846" 
d="M77 235q-14 11 -14 34t3 30h699q14 -11 14 -34t-3 -30h-699z" />
    <glyph glyph-name="quoteleft" unicode="&#x2018;" horiz-adv-x="202" 
d="M59.5 500q-19.5 30 -19.5 70t17.5 71.5t42.5 46.5q48 31 75 31q11 -3 11 -22q-40 -13 -59.5 -36.5t-19.5 -48.5t28.5 -48.5t28.5 -44.5t-13 -35t-34 -14q-38 0 -57.5 30z" />
    <glyph glyph-name="quoteright" unicode="&#x2019;" horiz-adv-x="215" 
d="M39 489q40 13 59.5 36.5t19.5 48.5t-28.5 49t-28.5 44.5t13 34.5t34 14q37 0 57 -29.5t20 -66.5t-12 -65t-29 -43.5t-38 -26.5q-33 -18 -56 -18q-11 3 -11 22z" />
    <glyph glyph-name="quotesinglbase" unicode="&#x201a;" horiz-adv-x="214" 
d="M42 -150l-4 1q-11 1 -11 22q40 13 59.5 36.5t19.5 44.5t-9 33.5t-19 18.5q-29 18 -29 42t12.5 37.5t33.5 13.5q38 0 58 -29.5t20 -68.5t-16 -70t-39 -47q-47 -34 -76 -34z" />
    <glyph glyph-name="quotedblleft" unicode="&#x201c;" horiz-adv-x="368" 
d="M59.5 500q-19.5 30 -19.5 70t17.5 71.5t42.5 46.5q48 31 75 31q11 -3 11 -22q-40 -13 -59.5 -36.5t-19.5 -48.5t28.5 -48.5t28.5 -44.5t-13 -35t-34 -14q-38 0 -57.5 30zM225.5 500q-19.5 30 -19.5 70t17.5 71.5t42.5 46.5q48 31 75 31q11 -3 11 -22q-40 -13 -59.5 -36.5
t-19.5 -48.5t28.5 -48.5t28.5 -44.5t-13 -35t-34 -14q-38 0 -57.5 30z" />
    <glyph glyph-name="quotedblright" unicode="&#x201d;" horiz-adv-x="381" 
d="M39 489q40 13 59.5 36.5t19.5 48.5t-28.5 49t-28.5 44.5t13 34.5t34 14q37 0 57 -29.5t20 -66.5t-12 -65t-29 -43.5t-38 -26.5q-33 -18 -56 -18q-11 3 -11 22zM205 489q40 13 59.5 36.5t19.5 48.5t-28.5 49t-28.5 44.5t13 34.5t34 14q37 0 57 -29.5t20 -66.5t-12 -65
t-29 -43.5t-38 -26.5q-33 -18 -56 -18q-11 3 -11 22z" />
    <glyph glyph-name="quotedblbase" unicode="&#x201e;" horiz-adv-x="380" 
d="M27 -127q40 13 59.5 36.5t19.5 47.5t-28.5 50t-28.5 45.5t12.5 33t33.5 13.5h1q36 0 56.5 -29t20.5 -68v-3q0 -38 -16 -68.5t-39 -46.5q-45 -34 -76 -34h-4q-11 3 -11 22v1zM193 -128q40 13 59.5 36.5t19.5 48.5t-28.5 49t-28.5 44.5t13 34.5t34 14q37 0 57 -29.5
t20 -66.5t-12 -65t-29 -43.5t-38 -26.5q-33 -18 -56 -18q-11 3 -11 22z" />
    <glyph glyph-name="dagger" unicode="&#x2020;" horiz-adv-x="474" 
d="M41 380q-16 20 -16 43.5t16 43.5l181 -30l-30 202q22 16 44 16t44 -16l-28 -202l181 30q16 -20 16 -43.5t-16 -43.5l-181 28l28 -172q-16 -20 -16 -42t9 -35l-16 -414q-11 -15 -40 -15l-18 429q9 13 9 35t-16 42l30 172z" />
    <glyph glyph-name="daggerdbl" unicode="&#x2021;" horiz-adv-x="492" 
d="M50 -82q-16 20 -16 43.5t16 43.5l181 -28l-30 172q16 20 16 43.5t-16 43.5l30 172l-181 -28q-16 20 -16 43.5t16 43.5l181 -30l-30 202q22 16 44 16t44 -16l-28 -202l181 30q16 -20 16 -43.5t-16 -43.5l-181 28l28 -172q-16 -20 -16 -43.5t16 -43.5l-28 -172l181 28
q16 -20 16 -43.5t-16 -43.5l-181 30l28 -202q-22 -16 -44 -16t-44 16l30 202z" />
    <glyph glyph-name="bullet" unicode="&#x2022;" horiz-adv-x="314" 
d="M85.5 196.5q-24.5 25.5 -24.5 67.5t29.5 70.5t71.5 28.5t67 -26t25 -68t-29 -70t-72 -28t-67.5 25.5z" />
    <glyph glyph-name="ellipsis" unicode="&#x2026;" horiz-adv-x="606" 
d="M62 2.5q-14 14.5 -14 38.5t16 39.5t40 15.5t38.5 -14.5t14.5 -38.5t-16.5 -39.5t-40.5 -15.5t-38 14.5zM262 2.5q-14 14.5 -14 38.5t16 39.5t40 15.5t38.5 -14.5t14.5 -38.5t-16.5 -39.5t-40.5 -15.5t-38 14.5zM462 2.5q-14 14.5 -14 38.5t16 39.5t40 15.5t38.5 -14.5
t14.5 -38.5t-16.5 -39.5t-40.5 -15.5t-38 14.5z" />
    <glyph glyph-name="uni202F" unicode="&#x202f;" horiz-adv-x="171" 
 />
    <glyph glyph-name="perthousand" unicode="&#x2030;" horiz-adv-x="983" 
d="M82 386q-33 40 -33 99.5t38 111t101 51.5t95 -39t32 -100.5t-37.5 -112t-100 -50.5t-95.5 40zM54 15l548 640q39 0 50 -27l-548 -640q-39 0 -50 27zM133.5 588q-17.5 -33 -17.5 -86.5t18 -91t49 -37.5t48.5 33.5t17.5 86t-18 90.5t-49 38t-48.5 -33zM419 45
q-33 40 -33 99.5t38 111t101 51.5t95 -39t32 -100.5t-37.5 -112t-100 -50.5t-95.5 40zM470.5 247q-17.5 -33 -17.5 -86.5t18 -91t49 -37.5t48.5 33.5t17.5 86t-18 90.5t-49 38t-48.5 -33zM719 45q-33 40 -33 99.5t38 111t101 51.5t95 -39t32 -100.5t-37.5 -112t-100 -50.5
t-95.5 40zM770.5 247q-17.5 -33 -17.5 -86.5t18 -91t49 -37.5t48.5 33.5t17.5 86t-18 90.5t-49 38t-48.5 -33z" />
    <glyph glyph-name="guilsinglleft" unicode="&#x2039;" horiz-adv-x="273" 
d="M55 234q-15 15 -15 33.5t15 33.5l144 148q16 -11 20 -19.5t4 -25.5l-102 -137l102 -136q0 -16 -4 -25t-20 -20z" />
    <glyph glyph-name="guilsinglright" unicode="&#x203a;" horiz-adv-x="271" 
d="M49 131l102 136l-102 137q0 17 4 25.5t20 19.5l144 -148q15 -15 15 -33.5t-15 -33.5l-144 -148q-16 11 -20 20t-4 25z" />
    <glyph glyph-name="fraction" unicode="&#x2044;" horiz-adv-x="263" 
d="M2 15l208 640h15q19 0 28 -9l9 -12l-208 -640h-15q-21 0 -28 10z" />
    <glyph glyph-name="uni205F" unicode="&#x205f;" horiz-adv-x="214" 
 />
    <glyph glyph-name="uni2080" unicode="&#x2080;" horiz-adv-x="405" 
d="M77 -104.5q-41 52.5 -41 132.5t48.5 148t126.5 68t118 -51.5t40 -133.5t-48 -149t-125.5 -67t-118.5 52.5zM135.5 160.5q-23.5 -43.5 -23.5 -113t23 -117t67.5 -47.5t67.5 43t23 113t-23 117.5t-67 47.5t-67.5 -43.5z" />
    <glyph glyph-name="uni2081" unicode="&#x2081;" horiz-adv-x="245" 
d="M167 -101l59 -11q0 -26 -16 -38h-173q0 30 16 34l47 13v282l-70 -14q-6 14 -6 24t6 18l109 37h28v-345z" />
    <glyph glyph-name="uni2082" unicode="&#x2082;" horiz-adv-x="345" 
d="M31 -106l32 27q157 122 157 225q0 26 -16 42.5t-43.5 16.5t-60.5 -21l-7 -48q-4 -16 -42 -16l-12 86q67 38 126.5 38t95 -26.5t35.5 -74.5q0 -30 -14 -61.5t-29 -52t-49 -51.5t-47 -41l-50 -38l138 -9l19 70q28 0 42 -17v-93h-257q-18 13 -18 44z" />
    <glyph glyph-name="uni2083" unicode="&#x2083;" horiz-adv-x="344" 
d="M30 -70q0 35 35 35q10 0 20 -5.5t13 -13.5q0 -35 16 -49t50 -14t52 18t18 47q0 57 -73 79q-23 12 -23 36q88 28 88 82q0 27 -16 43.5t-43.5 16.5t-60.5 -21l-7 -48q-4 -16 -42 -16l-12 86q67 38 125 38t91.5 -26.5t33.5 -74.5q0 -57 -73 -89q84 -33 84 -103
q0 -51 -37 -79.5t-101 -28.5t-101 27.5t-37 59.5z" />
    <glyph glyph-name="uni2084" unicode="&#x2084;" horiz-adv-x="332" 
d="M12 -14l194 258q46 0 46 -37v-219h37v-45h-37v-44q22 -5 53 -11q0 -26 -16 -38h-157q0 29 14 34l40 13v46h-156q-18 13 -18 43zM71 -12h115v156z" />
    <glyph glyph-name="uni2085" unicode="&#x2085;" horiz-adv-x="339" 
d="M65.5 -130q-35.5 27 -35.5 61t36 34q9 0 19 -5.5t13 -13.5q0 -35 16.5 -49t50 -14t50 21.5t16.5 56.5t-17.5 61t-58.5 26t-80 -28l-9 -2q-16 7 -16 31l17 188h219l-15 -109q-40 8 -43 19l-8 51l-110 -10v-114q32 16 67 16q59 0 93.5 -33t34.5 -83.5t-39.5 -90.5t-102 -40
t-98 27z" />
    <glyph glyph-name="uni2086" unicode="&#x2086;" horiz-adv-x="359" 
d="M36 12q0 92 52 162t141 70q31 0 51.5 -11.5t20.5 -26.5t-11.5 -24t-25.5 -9t-28 15.5t-25 15.5q-39 0 -66 -44t-33 -104q49 36 102.5 36t84.5 -35.5t31 -86.5t-39.5 -89t-98.5 -38q-80 0 -118 49.5t-38 119.5zM112 11q4 -128 75 -128q32 0 50 26t18 60.5t-13.5 55.5
t-40.5 21q-51 0 -89 -35z" />
    <glyph glyph-name="uni2087" unicode="&#x2087;" horiz-adv-x="290" 
d="M224 189l-141 7l-8 -49q-3 -11 -42 -19l-17 109h259q9 -12 9 -21t-19.5 -40.5t-43.5 -65.5t-43.5 -83.5t-19.5 -88t16 -66.5q-4 -10 -17 -19.5t-29 -9.5t-30 16.5t-14 48.5q0 124 140 281z" />
    <glyph glyph-name="uni2088" unicode="&#x2088;" horiz-adv-x="349" 
d="M71 -128.5q-36 28.5 -36 79t69 97.5q-50 30 -50 80.5t32 83t89.5 32.5t89 -28t31.5 -72.5t-48 -86.5q66 -36 66 -97q0 -48 -38.5 -82.5t-103.5 -34.5t-101 28.5zM134 32q-28 -28 -28 -69.5t18.5 -60.5t50 -19t50.5 17.5t19 42t-12 38t-25.5 20t-37.5 16t-35 15.5z
M129.5 188.5q-16.5 -15.5 -16.5 -43t25 -43.5q18 -11 76 -30q21 29 21 69q0 63 -61 63q-28 0 -44.5 -15.5z" />
    <glyph glyph-name="uni2089" unicode="&#x2089;" horiz-adv-x="360" 
d="M61 35.5q-30 31.5 -30 82t38.5 88.5t99.5 38q78 0 116.5 -49t38.5 -119q0 -92 -53.5 -162.5t-144.5 -70.5q-32 0 -54 11.5t-22 26.5t11.5 24t24 9t30 -15.5t27.5 -15.5q42 0 71 47t34 110q-49 -36 -103 -36t-84 31.5zM107 121q0 -69 52 -69q54 0 89 35q-7 117 -74 117
q-32 0 -49.5 -24t-17.5 -59z" />
    <glyph glyph-name="Euro" unicode="&#x20ac;" horiz-adv-x="604" 
d="M40 220q0 25 10 39h42q0 37 9 75h-61q0 25 10 39h62q31 90 98.5 149t165 59t169.5 -45l-18 -132q-39 3 -43 17l-11 72q-47 44 -114 44t-109 -44t-58 -120h195q0 -29 -10 -39h-191q-2 -36 -2 -53t1 -22h202q0 -29 -10 -39h-187q14 -81 58 -134t103 -53q76 0 122 53l11 99
q38 0 51 -15l10 -105q-88 -77 -197.5 -77t-176 66t-77.5 166h-54z" />
    <glyph glyph-name="trademark" unicode="&#x2122;" horiz-adv-x="777" 
d="M63 570v71h253v-71q-23 0 -28 9l-14 36l-60 -6v-218l40 -9q0 -14 -13 -23h-110q0 17 11 21l23 9v220l-60 6l-14 -36q-5 -9 -28 -9zM342 359q0 17 12 22l22 8l21 215l-35 11q0 18 12 26h83l75 -202l71 202h99q0 -21 -11 -24l-28 -10l18 -216l39 -9q0 -14 -10 -23h-112
q0 16 11 22l23 9l-14 181l-75 -202q-6 -11 -13.5 -11t-16.5 3l-82 212l-18 -182l41 -9q0 -15 -12 -23h-100z" />
    <glyph glyph-name="uni2126" unicode="&#x2126;" horiz-adv-x="820" 
d="M44 0v149q8 11 17 15t29 4l31 -122l130 9q-65 52 -104.5 131.5t-39.5 150.5t17.5 124.5t52.5 98t95 70t138 25.5q151 0 227 -88.5t76 -219.5q0 -82 -39 -161t-105 -131l130 -9l31 122q20 0 29 -4t17 -15v-149h-263q-15 11 -20.5 23.5t-5.5 38.5q124 67 124 249
q0 129 -49 212t-151.5 83t-152 -83t-49.5 -212q0 -180 124 -249q0 -26 -5.5 -38.5t-20.5 -23.5h-263z" />
    <glyph glyph-name="partialdiff" unicode="&#x2202;" horiz-adv-x="554" 
d="M98.5 49q-60.5 61 -60.5 149.5t54 155t151 66.5q60 0 107.5 -17t71.5 -41q-5 96 -102.5 197t-262.5 151q0 24 37 24q53 0 130.5 -40t139 -90.5t104 -134.5t42.5 -193q0 -112 -57 -196q-29 -42 -79.5 -67t-116.5 -25q-98 0 -158.5 61zM163 312.5q-35 -52.5 -35 -117.5
t37 -111.5t100 -46.5q157 0 157 274q-21 21 -61.5 37.5t-101.5 16.5t-96 -52.5z" />
    <glyph glyph-name="uni2206" unicode="&#x2206;" horiz-adv-x="583" 
d="M32 46l214 572q14 37 40 37q16 0 32 -7l237 -602q0 -20 -4 -29t-15 -17h-485q-11 8 -15 17t-4 29zM100 67h354l-181 462z" />
    <glyph glyph-name="product" unicode="&#x220f;" horiz-adv-x="755" 
d="M48 0q0 34 16 39l63 23v512l-79 21q0 20 4 29t15 17h648q0 -34 -16 -39l-74 -23v-512l90 -21q0 -20 -4 -29t-15 -17h-236q0 34 16 39l63 23v517h-326v-512l90 -21q0 -20 -4 -29t-15 -17h-236z" />
    <glyph glyph-name="summation" unicode="&#x2211;" horiz-adv-x="531" 
d="M32 46l242 268l-223 281q0 33 19 46h381v-153q-34 0 -39 16l-33 91l-214 -16l178 -224q9 -12 9 -21t-6 -15l-226 -252l285 -21l31 122q20 0 29 -4t17 -15v-149h-431q-19 13 -19 46z" />
    <glyph glyph-name="minus" unicode="&#x2212;" horiz-adv-x="572" 
d="M82 235q-14 11 -14 34t3 30h419q14 -11 14 -34t-3 -30h-419z" />
    <glyph glyph-name="radical" unicode="&#x221a;" horiz-adv-x="571" 
d="M13 443h83l144 -362l215 560h132q0 -35 -16 -39l-92 -23l-213 -554q-15 -37 -41 -37q-16 0 -32 7z" />
    <glyph glyph-name="infinity" unicode="&#x221e;" horiz-adv-x="751" 
d="M59 292q0 80 43 125t110 45q87 0 150 -99q40 95 148 99q74 0 127.5 -45.5t53.5 -126.5t-43 -125t-110 -44q-87 0 -150 99q-40 -95 -148 -99q-74 0 -127.5 45.5t-53.5 125.5zM138 378.5q-29 -31.5 -29 -87t29 -87.5t80 -32t76.5 35t53.5 118q-10 16 -22.5 31.5t-41.5 34.5
t-59 19q-58 0 -87 -31.5zM402 258q9 -15 21.5 -30.5t42 -35t59.5 -19.5q58 0 87 31.5t29 87t-29 87.5t-81 32t-76 -34t-53 -119z" />
    <glyph glyph-name="integral" unicode="&#x222b;" horiz-adv-x="418" 
d="M-13 -216q0 22 12 38l56 -10q20 -4 37 -4q42 0 59 35.5t17 132.5v472q0 65 25.5 130.5t73 110.5t104.5 45q29 0 44.5 -16t15.5 -38t-12 -38l-56 10q-20 4 -37 4q-42 0 -59 -35.5t-17 -132.5v-472q0 -105 -60.5 -195.5t-142.5 -90.5q-29 0 -44.5 16t-15.5 38z" />
    <glyph glyph-name="approxequal" unicode="&#x2248;" horiz-adv-x="534" 
d="M65 144q0 33 41 68.5t96 35.5q30 0 90 -24.5t86 -24.5q49 0 84 60q12 -13 12 -30q0 -32 -44.5 -67.5t-99.5 -35.5q-29 0 -87 24t-85 24q-47 0 -81 -58q-12 15 -12 28zM65 304q0 33 41 68.5t96 35.5q30 0 90 -24.5t86 -24.5q49 0 84 60q12 -13 12 -30q0 -32 -44.5 -67.5
t-99.5 -35.5q-29 0 -87 24t-85 24q-47 0 -81 -58q-12 15 -12 28z" />
    <glyph glyph-name="notequal" unicode="&#x2260;" horiz-adv-x="504" 
d="M70 165q-14 11 -14 34t3 30h133l56 76h-178q-14 11 -14 34t3 30h236l87 118q44 0 55 -27l-67 -91h68q14 -11 14 -34t-3 -31h-127l-55 -75h171q14 -11 14 -34t-3 -30h-230l-93 -127q-44 0 -55 27l74 100h-75z" />
    <glyph glyph-name="lessequal" unicode="&#x2264;" horiz-adv-x="566" 
d="M55 367q0 19 15 34l423 171q3 -8 3 -31t-14 -34l-331 -140l331 -140q14 -11 14 -34t-3 -31l-423 171q-15 15 -15 34zM74 31q-14 11 -14 33t3 29h419q14 -11 14 -33t-3 -29h-419z" />
    <glyph glyph-name="greaterequal" unicode="&#x2265;" horiz-adv-x="565" 
d="M73 31q-3 7 -3 29t14 33h419q3 -7 3 -29t-14 -33h-419zM73 162q-3 8 -3 31t14 34l331 140l-331 140q-14 11 -14 34t3 31l423 -171q15 -15 15 -34t-15 -34z" />
    <glyph glyph-name="lozenge" unicode="&#x25ca;" horiz-adv-x="648" 
d="M34 297q0 17 15 34l241 260q15 15 34 15t34 -15l241 -260q15 -17 15 -34t-15 -34l-241 -260q-15 -15 -34 -15t-34 15l-241 260q-15 17 -15 34zM113 297l211 -243l211 243l-211 243z" />
    <glyph glyph-name="uniE000" unicode="&#xe000;" horiz-adv-x="445" 
d="M0 445h445v-445h-445v445z" />
    <glyph glyph-name="uniF8FF" unicode="&#xf8ff;" horiz-adv-x="0" 
 />
    <glyph glyph-name="uniFB01" unicode="&#xfb01;" horiz-adv-x="573" 
d="M26 0q0 33 16 39l56 23v335l-63 3q0 36 19 45l44 2q0 66 26 131t78.5 110.5t119 45.5t114 -41.5t47.5 -82.5q0 -23 -14 -37.5t-38 -14.5t-35.5 12.5t-15 31t-8.5 36.5t-24 30.5t-53 12.5q-53 0 -84 -41.5t-31 -151.5v-40l246 3q53 0 53 -54v-330l82 -21q0 -20 -4 -29
t-15 -17h-217q0 33 16 39l56 23v323l-217 8v-326l92 -21q0 -20 -4 -29t-15 -17h-227z" />
    <glyph glyph-name="uniFB02" unicode="&#xfb02;" horiz-adv-x="576" 
d="M26 0q0 33 16 39l56 23v335l-63 4q0 36 19 45l44 2q0 63 32 129t89.5 111.5t121.5 45.5h85q25 0 39 -16t14 -37v-614l85 -21q0 -30 -22 -46h-217q0 33 16 39l56 23v600q-125 0 -159 -13q-58 -22 -58 -161v-35l131 9q9 -10 9 -26t-19 -31t-58 -15l-63 3v-326l92 -21
q0 -20 -4 -29t-15 -17h-227z" />
    <glyph glyph-name="uni000D" horiz-adv-x="287" 
 />
    </font>
</defs>
</svg>
